<?xml version="1.0" encoding="utf-8"?>
<!-- Generator: Adobe Illustrator 16.0.0, SVG Export Plug-In . SVG Version: 6.00 Build 0)  -->
<!DOCTYPE svg PUBLIC "-//W3C//DTD SVG 1.0//EN" "http://www.w3.org/TR/2001/REC-SVG-20010904/DTD/svg10.dtd">
<svg version="1.0" id="Layer_1" xmlns="http://www.w3.org/2000/svg" xmlns:xlink="http://www.w3.org/1999/xlink" x="0px" y="0px"
	 width="122.6px" height="32.734px" viewBox="0 0 122.6 32.734" enable-background="new 0 0 122.6 32.734" xml:space="preserve">
<path fill="#FFFFFF" d="M19.437,15.211c-0.029-3.614,2.96-5.369,3.092-5.45c-1.696-2.468-4.318-2.806-5.244-2.835
	c-2.203-0.235-4.34,1.322-5.465,1.322c-1.146,0-2.871-1.3-4.736-1.256C4.681,7.028,2.44,8.417,1.207,10.576
	c-2.541,4.399-0.646,10.862,1.784,14.418c1.22,1.74,2.638,3.687,4.503,3.613c1.821-0.073,2.504-1.161,4.7-1.161
	c2.182,0,2.82,1.161,4.716,1.116c1.953-0.028,3.188-1.747,4.362-3.503c1.41-1.997,1.969-3.958,1.998-4.062
	C23.227,20.969,19.473,19.537,19.437,15.211z M15.845,4.583C16.821,3.356,17.497,1.689,17.307,0
	c-1.418,0.066-3.195,0.984-4.216,2.181c-0.903,1.058-1.712,2.784-1.506,4.415C13.193,6.713,14.824,5.787,15.845,4.583z
	 M45.796,28.343h-2.548l-1.396-4.385h-4.848l-1.329,4.385H33.2l4.804-14.917h2.967L45.796,28.343z M41.44,22.122l-1.263-3.894
	c-0.132-0.396-0.382-1.336-0.749-2.813h-0.044c-0.147,0.632-0.382,1.571-0.705,2.813l-1.241,3.894H41.44z M58.15,22.835
	c0,1.828-0.492,3.274-1.483,4.341c-0.889,0.946-1.983,1.417-3.298,1.417c-1.418,0-2.438-0.507-3.056-1.528H50.27v5.67h-2.388V21.131
	c0-1.153-0.029-2.328-0.088-3.541h2.101l0.132,1.704h0.045c0.8-1.285,2.005-1.924,3.628-1.924c1.271,0,2.328,0.499,3.173,1.506
	C57.724,19.874,58.15,21.196,58.15,22.835L58.15,22.835z M55.712,22.922c0-1.05-0.235-1.909-0.705-2.592
	c-0.515-0.706-1.212-1.065-2.079-1.065c-0.587,0-1.124,0.199-1.601,0.588c-0.478,0.389-0.794,0.903-0.94,1.542
	c-0.073,0.294-0.11,0.536-0.11,0.728v1.791c0,0.786,0.242,1.44,0.721,1.984c0.477,0.536,1.102,0.808,1.872,0.808
	c0.903,0,1.602-0.346,2.101-1.043C55.462,24.973,55.712,24.062,55.712,22.922z M70.519,22.835c0,1.828-0.492,3.274-1.484,4.341
	c-0.881,0.946-1.982,1.417-3.297,1.417c-1.418,0-2.438-0.507-3.056-1.528h-0.044v5.67h-2.387V21.131c0-1.153-0.03-2.328-0.088-3.541
	h2.101l0.132,1.704h0.044c0.793-1.285,2.005-1.924,3.628-1.924c1.271,0,2.329,0.499,3.181,1.506
	C70.101,19.874,70.519,21.196,70.519,22.835L70.519,22.835z M68.088,22.922c0-1.05-0.235-1.909-0.713-2.592
	c-0.514-0.706-1.212-1.065-2.079-1.065c-0.587,0-1.123,0.199-1.607,0.588c-0.479,0.389-0.794,0.903-0.94,1.542
	c-0.073,0.294-0.11,0.536-0.11,0.728v1.791c0,0.786,0.242,1.44,0.72,1.984c0.478,0.536,1.102,0.808,1.873,0.808
	c0.903,0,1.601-0.346,2.101-1.043C67.838,24.973,68.088,24.062,68.088,22.922z M84.356,24.164c0,1.27-0.441,2.299-1.322,3.099
	c-0.97,0.874-2.328,1.308-4.062,1.308c-1.608,0-2.894-0.309-3.864-0.933l0.551-1.99c1.051,0.632,2.204,0.954,3.453,0.954
	c0.903,0,1.601-0.205,2.1-0.609c0.5-0.403,0.75-0.947,0.75-1.63c0-0.603-0.206-1.116-0.617-1.527
	c-0.411-0.412-1.102-0.801-2.057-1.153c-2.615-0.978-3.914-2.401-3.914-4.275c0-1.227,0.454-2.232,1.372-3.011
	c0.911-0.786,2.13-1.175,3.651-1.175c1.358,0,2.482,0.234,3.385,0.705l-0.594,1.945c-0.838-0.455-1.793-0.683-2.857-0.683
	c-0.838,0-1.498,0.206-1.968,0.617c-0.397,0.367-0.596,0.815-0.596,1.352c0,0.587,0.229,1.079,0.683,1.461
	c0.397,0.353,1.124,0.735,2.167,1.153c1.285,0.514,2.226,1.124,2.836,1.813C84.055,22.269,84.356,23.128,84.356,24.164z
	 M92.259,19.382h-2.637v5.223c0,1.329,0.462,1.99,1.396,1.99c0.426,0,0.778-0.037,1.065-0.11l0.065,1.814
	c-0.47,0.177-1.095,0.264-1.857,0.264c-0.948,0-1.683-0.285-2.211-0.866c-0.529-0.572-0.801-1.542-0.801-2.9v-5.421h-1.571v-1.792
	h1.571v-1.969l2.351-0.705v2.681h2.637L92.259,19.382L92.259,19.382z M104.143,22.879c0,1.652-0.471,3.012-1.417,4.075
	c-0.992,1.095-2.307,1.639-3.945,1.639c-1.578,0-2.834-0.522-3.774-1.572s-1.402-2.373-1.402-3.958c0-1.668,0.484-3.033,1.446-4.092
	c0.962-1.065,2.27-1.594,3.907-1.594c1.579,0,2.851,0.521,3.805,1.571C103.688,19.956,104.143,21.27,104.143,22.879z M101.66,22.96
	c0-0.992-0.213-1.844-0.639-2.557c-0.5-0.859-1.22-1.285-2.146-1.285c-0.962,0-1.689,0.426-2.188,1.285
	c-0.426,0.713-0.639,1.572-0.639,2.6c0,0.992,0.213,1.844,0.639,2.549c0.515,0.859,1.241,1.285,2.167,1.285
	c0.911,0,1.63-0.44,2.145-1.307C101.44,24.811,101.66,23.943,101.66,22.96z M111.913,19.69c-0.235-0.043-0.492-0.066-0.757-0.066
	c-0.837,0-1.491,0.316-1.945,0.956c-0.397,0.558-0.596,1.271-0.596,2.122v5.641h-2.387l0.022-7.367c0-1.241-0.029-2.372-0.089-3.386
	h2.079l0.087,2.058h0.067c0.249-0.706,0.653-1.278,1.196-1.704c0.53-0.383,1.109-0.573,1.727-0.573c0.221,0,0.419,0.015,0.595,0.044
	V19.69z M122.6,22.46c0,0.426-0.029,0.786-0.088,1.086h-7.169c0.029,1.066,0.375,1.874,1.043,2.438c0.603,0.5,1.389,0.75,2.343,0.75
	c1.066,0,2.028-0.169,2.902-0.507l0.374,1.659c-1.021,0.441-2.219,0.669-3.606,0.669c-1.667,0-2.975-0.492-3.929-1.47
	c-0.948-0.983-1.426-2.298-1.426-3.95c0-1.624,0.441-2.975,1.33-4.047c0.925-1.153,2.182-1.727,3.76-1.727
	c1.55,0,2.725,0.573,3.519,1.727C122.283,19.984,122.6,21.116,122.6,22.46L122.6,22.46z M120.322,21.836
	c0.016-0.705-0.139-1.322-0.462-1.836c-0.412-0.669-1.051-1-1.902-1c-0.778,0-1.418,0.323-1.902,0.978
	c-0.396,0.514-0.632,1.139-0.705,1.858H120.322z M40.647,4.252c0,1.322-0.396,2.314-1.183,2.982
	c-0.734,0.617-1.77,0.925-3.121,0.925c-0.668,0-1.241-0.028-1.719-0.088V0.859c0.624-0.104,1.3-0.154,2.021-0.154
	c1.285,0,2.247,0.279,2.9,0.837C40.28,2.174,40.647,3.077,40.647,4.252z M39.406,4.281c0-0.852-0.228-1.513-0.676-1.968
	c-0.455-0.456-1.116-0.684-1.983-0.684c-0.367,0-0.683,0.022-0.947,0.073v5.479c0.147,0.022,0.412,0.029,0.794,0.029
	c0.896,0,1.594-0.249,2.078-0.749C39.164,5.971,39.406,5.236,39.406,4.281z M47.214,5.405c0,0.815-0.235,1.477-0.697,1.997
	c-0.485,0.537-1.131,0.809-1.939,0.809c-0.778,0-1.396-0.257-1.851-0.771c-0.463-0.514-0.69-1.16-0.69-1.945
	c0-0.816,0.234-1.492,0.712-2.013c0.478-0.521,1.117-0.786,1.917-0.786c0.779,0,1.396,0.257,1.873,0.771
	C46.993,3.966,47.214,4.612,47.214,5.405z M45.995,5.442c0-0.485-0.104-0.903-0.316-1.256c-0.25-0.419-0.595-0.632-1.051-0.632
	c-0.469,0-0.829,0.213-1.079,0.632c-0.213,0.345-0.315,0.771-0.315,1.277c0,0.485,0.103,0.904,0.315,1.257
	c0.257,0.418,0.61,0.631,1.065,0.631c0.447,0,0.801-0.213,1.05-0.646C45.892,6.346,45.995,5.927,45.995,5.442z M56.021,2.806
	l-1.652,5.28h-1.073l-0.683-2.291c-0.176-0.573-0.316-1.146-0.426-1.704h-0.022c-0.103,0.58-0.242,1.146-0.426,1.704l-0.728,2.291
	h-1.086l-1.558-5.28h1.204l0.595,2.512c0.147,0.595,0.265,1.16,0.36,1.696h0.021c0.089-0.44,0.235-1.006,0.434-1.682l0.75-2.52
	h0.954l0.72,2.468c0.176,0.603,0.316,1.183,0.427,1.741h0.029c0.08-0.544,0.198-1.124,0.359-1.741l0.639-2.468L56.021,2.806z
	 M62.116,8.086h-1.175V5.061c0-0.934-0.353-1.396-1.065-1.396c-0.346,0-0.631,0.124-0.852,0.382
	c-0.213,0.257-0.323,0.558-0.323,0.903v3.136h-1.176V4.311c0-0.462-0.015-0.969-0.044-1.513h1.036l0.051,0.823h0.029
	c0.141-0.258,0.338-0.471,0.61-0.64c0.315-0.198,0.676-0.294,1.064-0.294c0.492,0,0.904,0.162,1.227,0.478
	c0.404,0.39,0.609,0.978,0.609,1.748v3.173H62.116z M65.354,8.086H64.18V0.381h1.175V8.086z M72.267,5.405
	c0,0.815-0.235,1.477-0.697,1.997c-0.485,0.537-1.132,0.809-1.939,0.809c-0.779,0-1.396-0.257-1.851-0.771
	c-0.464-0.514-0.69-1.16-0.69-1.945c0-0.816,0.234-1.492,0.712-2.013c0.478-0.521,1.116-0.786,1.917-0.786
	c0.778,0,1.396,0.257,1.873,0.771C72.046,3.966,72.267,4.612,72.267,5.405L72.267,5.405z M71.047,5.442
	c0-0.485-0.103-0.903-0.315-1.256c-0.242-0.419-0.596-0.632-1.05-0.632c-0.471,0-0.831,0.213-1.08,0.632
	c-0.213,0.345-0.315,0.771-0.315,1.277c0,0.485,0.103,0.904,0.315,1.257c0.257,0.418,0.609,0.631,1.065,0.631
	c0.447,0,0.801-0.213,1.05-0.646C70.944,6.346,71.047,5.927,71.047,5.442L71.047,5.442z M77.951,8.086h-1.057l-0.09-0.609h-0.028
	c-0.36,0.484-0.874,0.728-1.542,0.728c-0.5,0-0.903-0.162-1.205-0.478c-0.279-0.287-0.411-0.646-0.411-1.08
	c0-0.646,0.272-1.139,0.808-1.476c0.543-0.339,1.301-0.508,2.277-0.5V4.575c0-0.697-0.367-1.043-1.095-1.043
	c-0.521,0-0.983,0.133-1.381,0.39L73.985,3.15c0.492-0.301,1.094-0.455,1.814-0.455c1.381,0,2.071,0.727,2.071,2.188V6.83
	C77.878,7.359,77.907,7.777,77.951,8.086z M76.732,6.272V5.457c-1.293-0.022-1.947,0.33-1.947,1.064
	c0,0.279,0.074,0.485,0.229,0.617c0.154,0.14,0.346,0.206,0.573,0.206c0.256,0,0.499-0.081,0.719-0.242
	c0.221-0.162,0.36-0.375,0.404-0.625C76.725,6.419,76.732,6.353,76.732,6.272z M84.628,8.086h-1.043l-0.052-0.852h-0.029
	c-0.331,0.646-0.903,0.97-1.696,0.97c-0.64,0-1.168-0.25-1.587-0.749c-0.419-0.5-0.631-1.146-0.631-1.947
	c0-0.852,0.228-1.55,0.683-2.078c0.44-0.492,0.984-0.742,1.63-0.742c0.713,0,1.205,0.243,1.491,0.721h0.021V0.381h1.176v6.287
	C84.591,7.175,84.606,7.652,84.628,8.086z M83.415,5.861V4.979c0-0.154-0.014-0.279-0.028-0.367
	c-0.066-0.279-0.206-0.521-0.426-0.713c-0.221-0.19-0.485-0.286-0.786-0.286c-0.44,0-0.779,0.176-1.036,0.521
	c-0.249,0.345-0.374,0.793-0.374,1.337c0,0.521,0.117,0.947,0.359,1.271c0.257,0.346,0.595,0.521,1.029,0.521
	c0.389,0,0.689-0.146,0.925-0.434C83.306,6.559,83.415,6.235,83.415,5.861z M94.675,5.405c0,0.815-0.234,1.477-0.697,1.997
	c-0.484,0.537-1.131,0.809-1.939,0.809c-0.771,0-1.395-0.257-1.851-0.771c-0.463-0.514-0.689-1.16-0.689-1.945
	c0-0.816,0.234-1.492,0.711-2.013c0.478-0.521,1.117-0.786,1.918-0.786c0.771,0,1.396,0.257,1.872,0.771
	C94.455,3.966,94.675,4.612,94.675,5.405z M93.464,5.442c0-0.485-0.104-0.903-0.316-1.256c-0.25-0.419-0.595-0.632-1.058-0.632
	c-0.471,0-0.83,0.213-1.079,0.632c-0.213,0.345-0.316,0.771-0.316,1.277c0,0.485,0.104,0.904,0.316,1.257
	c0.257,0.418,0.608,0.631,1.064,0.631c0.448,0,0.801-0.213,1.058-0.646C93.354,6.346,93.464,5.927,93.464,5.442L93.464,5.442z
	 M100.991,8.086h-1.175V5.061c0-0.934-0.353-1.396-1.064-1.396c-0.346,0-0.632,0.124-0.845,0.382
	c-0.221,0.257-0.323,0.558-0.323,0.903v3.136h-1.176V4.311c0-0.462-0.015-0.969-0.044-1.513h1.029l0.051,0.823h0.029
	c0.139-0.258,0.346-0.471,0.609-0.64c0.323-0.198,0.676-0.294,1.064-0.294c0.493,0,0.904,0.162,1.228,0.478
	c0.403,0.39,0.608,0.978,0.608,1.748v3.173H100.991z M108.902,3.687h-1.293v2.57c0,0.654,0.228,0.978,0.684,0.978
	c0.212,0,0.389-0.015,0.521-0.052l0.03,0.889c-0.235,0.088-0.537,0.133-0.911,0.133c-0.463,0-0.822-0.14-1.088-0.427
	c-0.264-0.278-0.389-0.756-0.389-1.425V3.687h-0.771V2.806h0.771v-0.97l1.153-0.346v1.315h1.293V3.687z M115.122,8.086h-1.175V5.082
	c0-0.947-0.352-1.425-1.064-1.425c-0.544,0-0.918,0.271-1.124,0.822c-0.036,0.118-0.052,0.257-0.052,0.427v3.18h-1.175V0.381h1.175
	v3.188h0.022c0.367-0.58,0.904-0.867,1.587-0.867c0.484,0,0.888,0.162,1.212,0.478c0.396,0.396,0.594,0.992,0.594,1.771V8.086
	L115.122,8.086z M121.534,5.192c0,0.213-0.014,0.39-0.043,0.529h-3.525c0.014,0.521,0.184,0.918,0.506,1.196
	c0.302,0.25,0.683,0.367,1.153,0.367c0.521,0,0.999-0.08,1.425-0.25l0.184,0.816c-0.499,0.22-1.095,0.322-1.771,0.322
	c-0.814,0-1.461-0.242-1.931-0.719c-0.471-0.485-0.698-1.132-0.698-1.939c0-0.801,0.214-1.462,0.653-1.99
	c0.456-0.565,1.072-0.845,1.851-0.845c0.757,0,1.337,0.279,1.727,0.845C121.38,3.98,121.534,4.539,121.534,5.192z M120.419,4.891
	c0.007-0.345-0.066-0.646-0.229-0.902c-0.205-0.323-0.514-0.492-0.933-0.492c-0.382,0-0.698,0.161-0.933,0.477
	c-0.198,0.258-0.308,0.559-0.346,0.911L120.419,4.891z"/>
</svg>
