<?xml version="1.0" encoding="utf-8"?>
<!-- Generator: Adobe Illustrator 16.0.0, SVG Export Plug-In . SVG Version: 6.00 Build 0)  -->
<!DOCTYPE svg PUBLIC "-//W3C//DTD SVG 1.0//EN" "http://www.w3.org/TR/2001/REC-SVG-20010904/DTD/svg10.dtd">
<svg version="1.0" id="Layer_1" xmlns="http://www.w3.org/2000/svg" xmlns:xlink="http://www.w3.org/1999/xlink" x="0px" y="0px"
	 width="43.875px" height="43.875px" viewBox="0 0 43.875 43.875" enable-background="new 0 0 43.875 43.875" xml:space="preserve">
<g>
	<g>
		<path fill-rule="evenodd" clip-rule="evenodd" fill="#F54D31" d="M21.938,0C9.822,0,0,9.822,0,21.938
			c0,12.115,9.822,21.938,21.938,21.938c12.115,0,21.938-9.822,21.938-21.938C43.875,9.822,34.053,0,21.938,0z M21.938,42.041
			c-11.104,0-20.104-9-20.104-20.104S10.834,1.833,21.938,1.833s20.104,9,20.104,20.104S33.041,42.041,21.938,42.041z
			 M35.116,27.966c0.388,0,0.703-0.314,0.703-0.703s-0.315-0.703-0.703-0.703h-2.813v-9.84c0-0.388-0.314-0.703-0.703-0.703H12.97
			v-2.108h2.812c0.271,0,0.517-0.155,0.634-0.399c0.117-0.243,0.085-0.532-0.085-0.743l-3.515-4.395
			c-0.006-0.007-0.014-0.012-0.02-0.019c-0.026-0.03-0.055-0.06-0.086-0.083c-0.004-0.004-0.008-0.008-0.012-0.01
			c-0.12-0.094-0.269-0.152-0.432-0.152c-0.164,0-0.313,0.059-0.432,0.152c-0.004,0.002-0.008,0.006-0.013,0.01
			c-0.031,0.023-0.059,0.053-0.085,0.083c-0.007,0.007-0.015,0.012-0.02,0.019l-3.516,4.395c-0.169,0.211-0.202,0.5-0.085,0.743
			c0.117,0.244,0.363,0.399,0.634,0.399h2.813v2.108H8.751c-0.389,0-0.703,0.315-0.703,0.703c0,0.389,0.314,0.703,0.703,0.703h2.813
			v9.84c0,0.389,0.314,0.703,0.703,0.703h18.631v2.109h-2.813c-0.271,0-0.517,0.155-0.634,0.398s-0.084,0.533,0.085,0.744
			l3.516,4.394c0.007,0.009,0.015,0.014,0.021,0.022c0.021,0.023,0.044,0.046,0.067,0.066c0.014,0.013,0.028,0.024,0.043,0.035
			c0.025,0.02,0.053,0.036,0.082,0.051c0.015,0.008,0.028,0.018,0.044,0.024c0.032,0.015,0.067,0.026,0.102,0.036
			c0.013,0.004,0.025,0.009,0.039,0.012c0.049,0.011,0.1,0.017,0.15,0.017s0.102-0.006,0.15-0.017
			c0.014-0.003,0.025-0.008,0.039-0.012c0.034-0.01,0.069-0.021,0.102-0.036c0.016-0.007,0.029-0.017,0.044-0.024
			c0.029-0.015,0.057-0.031,0.082-0.051c0.015-0.011,0.029-0.022,0.043-0.035c0.023-0.021,0.046-0.043,0.066-0.066
			c0.008-0.009,0.016-0.014,0.022-0.022l3.516-4.394c0.169-0.211,0.202-0.501,0.085-0.744s-0.363-0.398-0.634-0.398h-2.813v-2.109
			H35.116z M10.214,12.502l1.35-1.688l0.703-0.879l0.703,0.879l1.349,1.688H10.214z M12.97,26.56v-9.137h17.928v9.137H12.97z
			 M33.653,31.481l-1.35,1.688l-0.703,0.878l-0.703-0.878l-1.35-1.688H33.653z"/>
	</g>
</g>
</svg>
