<?xml version="1.0" encoding="utf-8"?>
<!-- Generator: Adobe Illustrator 16.0.0, SVG Export Plug-In . SVG Version: 6.00 Build 0)  -->
<!DOCTYPE svg PUBLIC "-//W3C//DTD SVG 1.1//EN" "http://www.w3.org/Graphics/SVG/1.1/DTD/svg11.dtd">
<svg version="1.1" id="Layer_1" xmlns="http://www.w3.org/2000/svg" xmlns:xlink="http://www.w3.org/1999/xlink" x="0px" y="0px"
	 width="172px" height="40px" viewBox="0 0 172 40" enable-background="new 0 0 172 40" xml:space="preserve">
<path display="none" stroke="#FFFFFF" stroke-width="0.236" stroke-miterlimit="10" d="M55.685,5.094
	c0,1.226-0.375,2.204-1.103,2.935c-0.839,0.867-1.93,1.3-3.27,1.3c-1.278,0-2.368-0.446-3.271-1.313
	c-0.902-0.879-1.341-1.969-1.341-3.27c0-1.3,0.451-2.39,1.341-3.269s1.992-1.325,3.271-1.325c0.639,0,1.24,0.124,1.817,0.372
	c0.576,0.248,1.052,0.569,1.391,0.978L53.743,2.27C53.154,1.577,52.34,1.23,51.3,1.23c-0.927,0-1.742,0.322-2.431,0.966
	c-0.677,0.656-1.015,1.499-1.015,2.526c0,1.04,0.338,1.882,1.015,2.539c0.689,0.644,1.491,0.966,2.431,0.966
	c0.99,0,1.817-0.334,2.481-0.978c0.438-0.434,0.677-1.028,0.739-1.783H51.3V4.413h4.298C55.66,4.66,55.685,4.883,55.685,5.094z
	 M62.501,1.428h-4.035v2.787h3.646v1.053h-3.646v2.786h4.035v1.078h-5.188v-8.78h5.188V1.428z M67.326,9.119h-1.141V1.428h-2.48
	V0.351h6.102v1.077h-2.481V9.119z M74.217,9.119V0.351h1.141v8.768H74.217z M80.419,9.119h-1.141V1.428h-2.493V0.351H82.9v1.077
	h-2.481V9.119z M94.453,7.992c-0.877,0.892-1.955,1.325-3.258,1.325s-2.381-0.446-3.258-1.325c-0.877-0.879-1.303-1.969-1.303-3.257
	s0.438-2.377,1.303-3.257c0.877-0.892,1.955-1.325,3.258-1.325c1.29,0,2.367,0.446,3.245,1.337c0.877,0.892,1.315,1.969,1.315,3.245
	C95.769,6.022,95.33,7.112,94.453,7.992z M88.789,7.261c0.664,0.656,1.467,0.991,2.418,0.991c0.953,0,1.755-0.334,2.406-0.991
	s0.99-1.499,0.99-2.526s-0.339-1.87-0.99-2.526s-1.466-0.991-2.406-0.991c-0.951,0-1.754,0.334-2.418,0.991
	c-0.651,0.656-0.99,1.499-0.99,2.526S88.138,6.604,88.789,7.261z M97.372,9.119V0.351h1.392l4.31,6.824h0.05l-0.05-1.685V0.351h1.14
	v8.768h-1.189L98.5,1.96h-0.051L98.5,3.657v5.462H97.372L97.372,9.119z"/>
<path fill="#FFFFFF" d="M86.359,21.936c-3.483,0-6.315,2.613-6.315,6.23c0,3.579,2.844,6.216,6.315,6.216
	c3.483,0,6.329-2.637,6.329-6.216C92.674,24.549,89.842,21.936,86.359,21.936z M86.359,31.93c-1.905,0-3.546-1.56-3.546-3.777
	c0-2.24,1.641-3.776,3.546-3.776s3.558,1.522,3.558,3.776C89.917,30.37,88.264,31.93,86.359,31.93z M72.563,21.936
	c-3.483,0-6.315,2.613-6.315,6.23c0,3.579,2.832,6.216,6.315,6.216c3.484,0,6.316-2.637,6.316-6.216
	C78.891,24.549,76.047,21.936,72.563,21.936z M72.563,31.93c-1.904,0-3.558-1.56-3.558-3.777c0-2.24,1.641-3.776,3.558-3.776
	c1.905,0,3.546,1.522,3.546,3.776C76.122,30.37,74.481,31.93,72.563,31.93z M56.162,23.844v2.65h6.39
	c-0.188,1.475-0.69,2.563-1.453,3.318c-0.928,0.916-2.381,1.933-4.937,1.933c-3.935,0-7.017-3.134-7.017-7.022
	c0-3.888,3.082-7.021,7.017-7.021c2.13,0,3.671,0.817,4.811,1.882l1.892-1.87c-1.591-1.51-3.721-2.662-6.703-2.662
	c-5.388,0-9.924,4.334-9.924,9.671c0,5.338,4.536,9.672,9.924,9.672c2.92,0,5.1-0.94,6.829-2.711
	c1.766-1.746,2.318-4.199,2.318-6.168c0-0.619-0.05-1.177-0.15-1.647C65.159,23.844,56.162,23.844,56.162,23.844z M123.247,25.887
	c-0.526-1.387-2.13-3.963-5.388-3.963c-3.233,0-5.94,2.526-5.94,6.23c0,3.492,2.67,6.216,6.24,6.216c2.896,0,4.562-1.746,5.25-2.763
	l-2.142-1.41c-0.715,1.039-1.691,1.721-3.107,1.721c-1.404,0-2.406-0.632-3.045-1.882l8.42-3.442L123.247,25.887z M114.65,27.967
	c-0.074-2.402,1.893-3.628,3.283-3.628c1.104,0,2.03,0.545,2.344,1.325c0.013-0.012-5.627,2.305-5.627,2.305V27.967z M107.811,34
	h2.769V15.707h-2.769V34L107.811,34z M103.273,23.324h-0.086c-0.627-0.73-1.806-1.387-3.309-1.387c-3.158,0-6.04,2.736-6.04,6.242
	c0,3.491,2.882,6.203,6.04,6.203c1.503,0,2.693-0.668,3.309-1.41h0.086v0.891c0,2.378-1.289,3.654-3.357,3.654
	c-1.691,0-2.744-1.203-3.17-2.218l-2.406,0.99c0.689,1.647,2.531,3.679,5.576,3.679c3.246,0,5.99-1.883,5.99-6.477V22.32h-2.62
	v1.002L103.273,23.324z M100.117,31.932c-1.905,0-3.51-1.572-3.51-3.752c0-2.193,1.593-3.791,3.51-3.791
	c1.88,0,3.357,1.598,3.357,3.791C103.475,30.359,101.996,31.932,100.117,31.932z M136.203,15.708h-6.616V34h2.757v-6.936h3.859
	c3.07,0,6.076-2.192,6.076-5.685C142.279,17.9,139.26,15.708,136.203,15.708z M136.277,24.525h-3.934v-6.267h3.934
	c2.068,0,3.234,1.697,3.234,3.134C139.512,22.805,138.346,24.525,136.277,24.525z M153.344,21.9c-1.992,0-4.072,0.867-4.924,2.8
	l2.455,1.015c0.527-1.016,1.491-1.35,2.52-1.35c1.428,0,2.881,0.854,2.906,2.354v0.197c-0.501-0.285-1.566-0.706-2.882-0.706
	c-2.644,0-5.325,1.437-5.325,4.11c0,2.453,2.168,4.025,4.586,4.025c1.854,0,2.883-0.83,3.533-1.795h0.1v1.411h2.67v-7.022
	C158.971,23.721,156.525,21.9,153.344,21.9L153.344,21.9z M153.018,31.919c-0.901,0-2.168-0.446-2.168-1.548
	c0-1.412,1.567-1.957,2.932-1.957c1.217,0,1.793,0.26,2.52,0.62C156.088,30.73,154.609,31.919,153.018,31.919z M168.693,22.297
	l-3.17,7.926h-0.101l-3.282-7.926h-2.982l4.924,11.083l-2.82,6.168h2.883l7.594-17.251H168.693z M143.796,34h2.771V15.707h-2.771V34
	z"/>
<g transform="matrix(1.25299 0 0 -1.23841 -9.796 49.85)">
	
		<linearGradient id="SVGID_1_" gradientUnits="userSpaceOnUse" x1="-164.4191" y1="14.8056" x2="-189.2071" y2="-9.9824" gradientTransform="matrix(1.256 0 0 -1.2269 228.5693 29.5134)">
		<stop  offset="0" style="stop-color:#00A0FF"/>
		<stop  offset="0.007" style="stop-color:#00A1FF"/>
		<stop  offset="0.26" style="stop-color:#00BEFF"/>
		<stop  offset="0.512" style="stop-color:#00D2FF"/>
		<stop  offset="0.76" style="stop-color:#00DFFF"/>
		<stop  offset="1" style="stop-color:#00E3FF"/>
	</linearGradient>
	<path fill="url(#SVGID_1_)" d="M8.56,39.34c-0.35-0.36-0.55-0.93-0.55-1.66V11.54c0-0.73,0.2-1.3,0.55-1.661l0.08-0.079
		L23.28,24.44v0.35L8.64,39.42L8.56,39.34z"/>
</g>
<g transform="matrix(1.25299 0 0 -1.23841 -9.796 49.85)">
	
		<linearGradient id="SVGID_2_" gradientUnits="userSpaceOnUse" x1="-153.1543" y1="3.992" x2="-188.8933" y2="3.992" gradientTransform="matrix(1.256 0 0 -1.2269 228.5693 29.5134)">
		<stop  offset="0" style="stop-color:#FFE000"/>
		<stop  offset="0.409" style="stop-color:#FFBD00"/>
		<stop  offset="0.775" style="stop-color:#FFA500"/>
		<stop  offset="1" style="stop-color:#FF9C00"/>
	</linearGradient>
	<path fill="url(#SVGID_2_)" d="M28.16,19.56l-4.88,4.88v0.35l4.88,4.88l0.11-0.06l5.78-3.29c1.65-0.93,1.65-2.47,0-3.411
		l-5.78-3.28L28.16,19.56z"/>
</g>
<g transform="matrix(1.25299 0 0 -1.23841 -9.796 49.85)">
	
		<linearGradient id="SVGID_3_" gradientUnits="userSpaceOnUse" x1="-169.4824" y1="9.8187" x2="-203.0964" y2="-23.7953" gradientTransform="matrix(1.256 0 0 -1.2269 228.5693 29.5134)">
		<stop  offset="0" style="stop-color:#FF3A44"/>
		<stop  offset="1" style="stop-color:#C31162"/>
	</linearGradient>
	<path fill="url(#SVGID_3_)" d="M28.28,19.62l-4.99,4.99L8.56,9.879C9.11,9.31,10,9.24,11.02,9.81L28.28,19.62"/>
</g>
<g transform="matrix(1.25299 0 0 -1.23841 -9.796 49.85)">
	
		<linearGradient id="SVGID_4_" gradientUnits="userSpaceOnUse" x1="-186.0592" y1="14.9499" x2="-171.0512" y2="-0.0581" gradientTransform="matrix(1.256 0 0 -1.2269 228.5693 29.5134)">
		<stop  offset="0" style="stop-color:#32A071"/>
		<stop  offset="0.069" style="stop-color:#2DA771"/>
		<stop  offset="0.476" style="stop-color:#15CF74"/>
		<stop  offset="0.801" style="stop-color:#06E775"/>
		<stop  offset="1" style="stop-color:#00F076"/>
	</linearGradient>
	<path fill="url(#SVGID_4_)" d="M28.28,29.6l-17.26,9.81c-1.02,0.57-1.91,0.5-2.46-0.08l14.73-14.72L28.28,29.6z"/>
</g>
<g>
	<path fill="#FFFFFF" d="M49.08,1.647h-2.854v-1.03h6.948v1.03h-2.868v8.354H49.08V1.647z"/>
	<path fill="#FFFFFF" d="M54.569,6.854c0.027,1.657,1.085,2.339,2.311,2.339c0.877,0,1.406-0.153,1.866-0.348l0.209,0.877
		c-0.432,0.195-1.169,0.418-2.242,0.418c-2.075,0-3.314-1.365-3.314-3.398c0-2.032,1.198-3.633,3.161-3.633
		c2.2,0,2.785,1.935,2.785,3.174c0,0.251-0.028,0.446-0.042,0.571H54.569z M58.161,5.978c0.013-0.779-0.32-1.991-1.699-1.991
		c-1.239,0-1.782,1.142-1.879,1.991H58.161z M58.454,0.353l-1.699,1.992h-0.876l1.225-1.992H58.454z"/>
	<path fill="#FFFFFF" d="M61.562,0.116h1.226v9.885h-1.226V0.116z"/>
	<path fill="#FFFFFF" d="M66.229,6.854c0.028,1.657,1.085,2.339,2.311,2.339c0.877,0,1.406-0.153,1.866-0.348l0.209,0.877
		c-0.432,0.195-1.169,0.418-2.242,0.418c-2.075,0-3.314-1.365-3.314-3.398c0-2.032,1.198-3.633,3.161-3.633
		c2.2,0,2.785,1.935,2.785,3.174c0,0.251-0.028,0.446-0.042,0.571H66.229z M69.821,5.978c0.014-0.779-0.32-1.991-1.699-1.991
		c-1.239,0-1.783,1.142-1.88,1.991H69.821z M70.114,0.353l-1.699,1.992h-0.877l1.225-1.992H70.114z"/>
	<path fill="#FFFFFF" d="M78.025,9.75c-0.32,0.167-1.03,0.391-1.935,0.391c-2.033,0-3.355-1.379-3.355-3.439
		c0-2.075,1.42-3.579,3.621-3.579c0.724,0,1.364,0.18,1.698,0.348l-0.278,0.947c-0.293-0.167-0.752-0.32-1.42-0.32
		c-1.546,0-2.382,1.142-2.382,2.548c0,1.559,1.003,2.52,2.34,2.52c0.696,0,1.155-0.18,1.504-0.333L78.025,9.75z"/>
	<path fill="#FFFFFF" d="M80.16,0.116h1.225V4.32h0.028c0.195-0.348,0.501-0.654,0.877-0.863c0.362-0.209,0.793-0.348,1.253-0.348
		c0.905,0,2.353,0.557,2.353,2.882v4.01h-1.225V6.131c0-1.086-0.404-2.005-1.56-2.005c-0.794,0-1.42,0.557-1.643,1.225
		c-0.07,0.167-0.083,0.348-0.083,0.585v4.065H80.16V0.116z"/>
	<path fill="#FFFFFF" d="M92.319,10.001l-0.098-0.849H92.18c-0.375,0.529-1.1,1.002-2.061,1.002c-1.364,0-2.061-0.961-2.061-1.936
		c0-1.629,1.448-2.521,4.052-2.506v-0.14c0-0.557-0.153-1.559-1.531-1.559c-0.627,0-1.28,0.195-1.754,0.501l-0.279-0.807
		C89.104,3.346,89.91,3.11,90.76,3.11c2.062,0,2.562,1.406,2.562,2.756v2.52c0,0.584,0.028,1.156,0.112,1.615H92.319z M92.139,6.563
		c-1.338-0.028-2.854,0.209-2.854,1.518c0,0.793,0.529,1.169,1.155,1.169c0.878,0,1.435-0.557,1.629-1.127
		c0.042-0.125,0.07-0.265,0.07-0.391V6.563z"/>
	<path fill="#FFFFFF" d="M95.998,5.365c0-0.793-0.014-1.476-0.055-2.103h1.071l0.043,1.323h0.056
		c0.305-0.905,1.043-1.476,1.865-1.476c0.14,0,0.236,0.014,0.349,0.042v1.155c-0.127-0.028-0.251-0.042-0.419-0.042
		c-0.863,0-1.476,0.655-1.643,1.574C97.238,6.006,97.21,6.2,97.21,6.409v3.592h-1.212V5.365z"/>
	<path fill="#FFFFFF" d="M106.945,3.263c-0.028,0.487-0.056,1.03-0.056,1.852v3.913c0,1.545-0.307,2.492-0.962,3.077
		c-0.653,0.612-1.6,0.808-2.449,0.808c-0.809,0-1.699-0.195-2.241-0.557l0.306-0.933c0.445,0.279,1.142,0.529,1.977,0.529
		c1.253,0,2.173-0.655,2.173-2.353V8.846h-0.028c-0.377,0.627-1.1,1.128-2.145,1.128c-1.671,0-2.868-1.42-2.868-3.286
		c0-2.284,1.49-3.578,3.035-3.578c1.17,0,1.811,0.612,2.102,1.169h0.028l0.056-1.016H106.945z M105.678,5.922
		c0-0.208-0.014-0.39-0.069-0.557c-0.224-0.71-0.821-1.295-1.714-1.295c-1.168,0-2.004,0.989-2.004,2.548
		c0,1.323,0.668,2.422,1.991,2.422c0.751,0,1.435-0.473,1.698-1.253c0.07-0.208,0.098-0.445,0.098-0.654V5.922z"/>
	<path fill="#FFFFFF" d="M110.305,6.854c0.028,1.657,1.086,2.339,2.313,2.339c0.877,0,1.405-0.153,1.865-0.348l0.21,0.877
		c-0.434,0.195-1.171,0.418-2.242,0.418c-2.074,0-3.313-1.365-3.313-3.398c0-2.032,1.196-3.633,3.16-3.633
		c2.2,0,2.784,1.935,2.784,3.174c0,0.251-0.028,0.446-0.041,0.571H110.305z M113.898,5.978c0.013-0.779-0.321-1.991-1.698-1.991
		c-1.24,0-1.783,1.142-1.88,1.991H113.898z"/>
	<path fill="#FFFFFF" d="M116.532,9.291l3.051-3.968c0.292-0.362,0.569-0.682,0.876-1.044V4.251h-3.647V3.263h5.137l-0.013,0.766
		l-3.008,3.913c-0.278,0.375-0.558,0.71-0.864,1.058v0.028h3.941v0.974h-5.473V9.291z"/>
	<path fill="#FFFFFF" d="M127.439,8.748c0.362,0.237,1.003,0.487,1.615,0.487c0.893,0,1.309-0.445,1.309-1.002
		c0-0.585-0.348-0.905-1.253-1.24c-1.211-0.431-1.782-1.1-1.782-1.907c0-1.085,0.878-1.977,2.325-1.977
		c0.683,0,1.282,0.194,1.657,0.417l-0.307,0.891c-0.264-0.167-0.752-0.39-1.379-0.39c-0.723,0-1.126,0.418-1.126,0.919
		c0,0.557,0.403,0.807,1.28,1.142c1.169,0.445,1.768,1.03,1.768,2.033c0,1.183-0.918,2.019-2.521,2.019
		c-0.737,0-1.419-0.182-1.893-0.459L127.439,8.748z"/>
	<path fill="#FFFFFF" d="M139.46,8.164c0,0.696,0.014,1.309,0.057,1.837h-1.087l-0.07-1.1h-0.026
		c-0.321,0.543-1.031,1.253-2.228,1.253c-1.06,0-2.325-0.584-2.325-2.952v-3.94h1.224v3.731c0,1.281,0.391,2.145,1.505,2.145
		c0.82,0,1.392-0.571,1.614-1.114c0.07-0.181,0.111-0.403,0.111-0.626V3.263h1.226V8.164z"/>
	<path fill="#FFFFFF" d="M142.194,5.365c0-0.793-0.016-1.476-0.057-2.103h1.072l0.041,1.323h0.056
		c0.307-0.905,1.045-1.476,1.867-1.476c0.139,0,0.236,0.014,0.348,0.042v1.155c-0.126-0.028-0.251-0.042-0.419-0.042
		c-0.862,0-1.475,0.655-1.642,1.574c-0.027,0.167-0.057,0.362-0.057,0.571v3.592h-1.21V5.365z"/>
</g>
</svg>
