<?xml version="1.0" encoding="utf-8"?>
<!-- Generator: Adobe Illustrator 16.0.0, SVG Export Plug-In . SVG Version: 6.00 Build 0)  -->
<!DOCTYPE svg PUBLIC "-//W3C//DTD SVG 1.1//EN" "http://www.w3.org/Graphics/SVG/1.1/DTD/svg11.dtd">
<svg version="1.1" id="Layer_1" xmlns="http://www.w3.org/2000/svg" xmlns:xlink="http://www.w3.org/1999/xlink" x="0px" y="0px"
	 width="25px" height="24px" viewBox="0 0 25 24" enable-background="new 0 0 25 24" xml:space="preserve">
<title>Essentials/download-2</title>
<desc>Created with Sketch.</desc>
<g id="concepts">
	<g id="parallax-responsive" transform="translate(-553.000000, -308.000000)">
		<g id="Group-2" transform="translate(412.868869, 0.000000)">
			<g id="download-CTA" transform="translate(103.000000, 293.000000)">
				<g id="Essentials_x2F_download-2" transform="translate(38.000000, 15.000000)">
					<path id="Shape" fill="#FFFFFF" d="M22,24H2c-1.103,0-2-0.896-2-1.999h2h20h2C24,23.104,23.102,24,22,24z M12.707,17.699
						c-0.092,0.093-0.202,0.166-0.325,0.217C12.26,17.967,12.13,17.993,12,17.993c-0.13,0-0.26-0.026-0.382-0.077
						c-0.121-0.05-0.23-0.122-0.322-0.213c0-0.001-0.001-0.001-0.002-0.002l0,0c-0.001-0.001-0.001-0.001-0.002-0.002l-4.998-4.987
						c-0.392-0.39-0.392-1.022-0.002-1.413c0.391-0.392,1.023-0.39,1.414-0.002L11,14.583V0.999C11,0.447,11.447,0,12,0
						c0.553,0,1,0.447,1,0.999v13.584l3.294-3.286c0.391-0.388,1.022-0.39,1.413,0.002c0.391,0.391,0.391,1.023-0.002,1.413
						L12.707,17.699z"/>
				</g>
			</g>
		</g>
	</g>
</g>
</svg>
