<?xml version="1.0" encoding="utf-8"?>
<!-- Generator: Adobe Illustrator 16.0.0, SVG Export Plug-In . SVG Version: 6.00 Build 0)  -->
<!DOCTYPE svg PUBLIC "-//W3C//DTD SVG 1.0//EN" "http://www.w3.org/TR/2001/REC-SVG-20010904/DTD/svg10.dtd">
<svg version="1.0" id="Layer_1" xmlns="http://www.w3.org/2000/svg" xmlns:xlink="http://www.w3.org/1999/xlink" x="0px" y="0px"
	 width="168px" height="46px" viewBox="0 0 168 46" enable-background="new 0 0 168 46" xml:space="preserve">
<path fill="#FFFFFF" d="M27.541,21.43c-0.04-4.92,4.03-7.31,4.21-7.42c-2.31-3.36-5.88-3.82-7.14-3.86c-3-0.32-5.91,1.8-7.44,1.8
	c-1.56,0-3.91-1.77-6.45-1.71c-3.27,0.05-6.32,1.94-8,4.88c-3.46,5.99-0.88,14.79,2.43,19.63c1.66,2.37,3.59,5.02,6.13,4.92
	c2.48-0.1,3.41-1.58,6.4-1.58c2.97,0,3.84,1.58,6.42,1.52c2.66-0.039,4.34-2.379,5.94-4.77c1.92-2.72,2.68-5.39,2.72-5.529
	C32.701,29.27,27.59,27.32,27.541,21.43z M22.65,6.96c1.33-1.67,2.25-3.94,1.99-6.24c-1.93,0.09-4.35,1.34-5.74,2.97
	c-1.23,1.44-2.33,3.79-2.05,6.01C19.041,9.86,21.261,8.6,22.65,6.96z M75.535,36.531h-3.051l-1.67-5.25H65.01l-1.592,5.25h-2.963
	l5.75-17.859h3.553L75.535,36.531z M70.321,29.083l-1.513-4.66c-0.159-0.475-0.457-1.598-0.896-3.368h-0.053
	c-0.177,0.758-0.458,1.882-0.845,3.368l-1.486,4.66H70.321z M90.322,29.938c0,2.188-0.59,3.922-1.776,5.195
	c-1.063,1.134-2.374,1.699-3.946,1.699c-1.697,0-2.918-0.607-3.658-1.829h-0.053v6.787h-2.855V27.896
	c0-1.381-0.037-2.787-0.106-4.238h2.513l0.158,2.041h0.054c0.958-1.54,2.398-2.305,4.342-2.305c1.521,0,2.787,0.598,3.799,1.804
	C89.813,26.393,90.322,27.977,90.322,29.938L90.322,29.938z M87.404,30.042c0-1.257-0.282-2.286-0.845-3.104
	c-0.615-0.845-1.452-1.275-2.487-1.275c-0.705,0-1.346,0.237-1.917,0.704c-0.572,0.466-0.95,1.081-1.125,1.847
	c-0.089,0.351-0.133,0.642-0.133,0.869v2.146c0,0.941,0.29,1.725,0.861,2.375c0.572,0.641,1.319,0.967,2.242,0.967
	c1.082,0,1.917-0.413,2.515-1.248C87.104,32.496,87.404,31.405,87.404,30.042z M105.131,29.938c0,2.188-0.59,3.922-1.778,5.195
	c-1.055,1.134-2.373,1.699-3.947,1.699c-1.697,0-2.919-0.607-3.657-1.829h-0.053v6.787h-2.857V27.896
	c0-1.381-0.034-2.787-0.105-4.238h2.515l0.159,2.041h0.052c0.95-1.54,2.4-2.305,4.343-2.305c1.522,0,2.789,0.598,3.81,1.804
	C104.63,26.393,105.131,27.977,105.131,29.938L105.131,29.938z M102.22,30.042c0-1.257-0.282-2.286-0.854-3.104
	c-0.616-0.845-1.45-1.275-2.489-1.275c-0.701,0-1.344,0.237-1.925,0.704c-0.572,0.466-0.95,1.081-1.125,1.847
	c-0.089,0.351-0.132,0.642-0.132,0.869v2.146c0,0.941,0.29,1.725,0.86,2.375c0.573,0.641,1.319,0.967,2.242,0.967
	c1.083,0,1.916-0.413,2.516-1.248C101.922,32.496,102.22,31.405,102.22,30.042z M121.696,31.529c0,1.52-0.526,2.751-1.583,3.71
	c-1.16,1.046-2.787,1.565-4.86,1.565c-1.927,0-3.466-0.37-4.627-1.117l0.66-2.382c1.257,0.754,2.637,1.142,4.133,1.142
	c1.081,0,1.917-0.245,2.514-0.729c0.6-0.483,0.896-1.134,0.896-1.951c0-0.722-0.245-1.337-0.738-1.829
	c-0.492-0.493-1.319-0.959-2.462-1.38c-3.13-1.17-4.686-2.876-4.686-5.12c0-1.469,0.544-2.673,1.644-3.605
	c1.09-0.94,2.55-1.406,4.37-1.406c1.627,0,2.972,0.281,4.054,0.844l-0.714,2.33c-1.001-0.546-2.146-0.818-3.419-0.818
	c-1.002,0-1.794,0.247-2.355,0.738c-0.478,0.44-0.713,0.978-0.713,1.619c0,0.703,0.272,1.292,0.816,1.749
	c0.476,0.423,1.347,0.881,2.594,1.382c1.54,0.615,2.665,1.345,3.396,2.171C121.337,29.26,121.696,30.288,121.696,31.529z
	 M131.158,25.803h-3.156v6.253c0,1.591,0.554,2.383,1.671,2.383c0.51,0,0.93-0.044,1.274-0.132l0.08,2.171
	c-0.564,0.214-1.311,0.317-2.225,0.317c-1.136,0-2.015-0.341-2.647-1.038c-0.633-0.686-0.959-1.845-0.959-3.473v-6.489h-1.881
	v-2.146h1.881v-2.356l2.813-0.845v3.21h3.158L131.158,25.803L131.158,25.803z M145.385,29.991c0,1.978-0.561,3.604-1.696,4.879
	c-1.188,1.311-2.761,1.962-4.722,1.962c-1.892,0-3.395-0.627-4.519-1.883c-1.126-1.258-1.68-2.842-1.68-4.74
	c0-1.995,0.579-3.632,1.732-4.897c1.151-1.275,2.716-1.908,4.677-1.908c1.891,0,3.411,0.624,4.556,1.881
	C144.84,26.49,145.385,28.063,145.385,29.991z M142.412,30.086c0-1.188-0.253-2.207-0.763-3.06
	c-0.599-1.029-1.461-1.539-2.568-1.539c-1.151,0-2.022,0.51-2.621,1.539c-0.51,0.853-0.763,1.882-0.763,3.111
	c0,1.189,0.253,2.208,0.763,3.052c0.615,1.029,1.487,1.539,2.595,1.539c1.092,0,1.951-0.526,2.566-1.564
	C142.15,32.303,142.412,31.265,142.412,30.086z M154.688,26.173c-0.281-0.053-0.588-0.079-0.905-0.079
	c-1.001,0-1.786,0.378-2.329,1.143c-0.477,0.67-0.714,1.522-0.714,2.541v6.754h-2.856l0.026-8.819c0-1.486-0.036-2.84-0.106-4.054
	h2.488l0.105,2.462h0.08c0.298-0.845,0.783-1.53,1.433-2.04c0.633-0.456,1.327-0.686,2.067-0.686c0.263,0,0.501,0.019,0.711,0.053
	V26.173z M167.483,29.488c0,0.51-0.035,0.941-0.106,1.301h-8.582c0.037,1.276,0.449,2.244,1.248,2.92
	c0.722,0.598,1.664,0.897,2.806,0.897c1.276,0,2.427-0.202,3.475-0.607l0.449,1.987c-1.225,0.527-2.657,0.8-4.319,0.8
	c-1.995,0-3.561-0.59-4.704-1.759c-1.134-1.178-1.705-2.751-1.705-4.729c0-1.943,0.526-3.563,1.592-4.846
	c1.106-1.379,2.61-2.067,4.5-2.067c1.857,0,3.264,0.688,4.213,2.067C167.104,26.525,167.483,27.879,167.483,29.488L167.483,29.488z
	 M164.757,28.74c0.018-0.844-0.166-1.581-0.553-2.198c-0.492-0.799-1.258-1.196-2.277-1.196c-0.933,0-1.697,0.387-2.278,1.17
	c-0.475,0.615-0.756,1.363-0.845,2.225H164.757z"/>
<g>
	<path fill="#FFFFFF" d="M52.698,4.821h-2.727v8.445h-1.106V4.821h-2.721V3.819h6.554V4.821z"/>
	<path fill="#FFFFFF" d="M58.814,10.163h-4.762c0.017,0.751,0.219,1.331,0.606,1.739c0.386,0.409,0.917,0.613,1.594,0.613
		c0.76,0,1.458-0.25,2.095-0.751v1.015c-0.593,0.43-1.376,0.646-2.352,0.646c-0.953,0-1.702-0.307-2.246-0.919
		c-0.544-0.613-0.817-1.475-0.817-2.585c0-1.05,0.297-1.905,0.893-2.566c0.595-0.661,1.334-0.991,2.217-0.991
		c0.882,0,1.565,0.285,2.048,0.856c0.483,0.571,0.725,1.363,0.725,2.378V10.163z M57.708,9.248
		c-0.004-0.624-0.155-1.109-0.451-1.456c-0.296-0.347-0.708-0.521-1.235-0.521c-0.509,0-0.942,0.183-1.297,0.547
		c-0.356,0.365-0.576,0.841-0.659,1.43H57.708z M57.536,3.082l-1.726,2.161h-0.837l1.469-2.161H57.536z"/>
	<path fill="#FFFFFF" d="M62.203,13.266h-1.081V3.279h1.081V13.266z"/>
	<path fill="#FFFFFF" d="M70.485,10.163h-4.762c0.017,0.751,0.219,1.331,0.606,1.739c0.386,0.409,0.917,0.613,1.594,0.613
		c0.76,0,1.458-0.25,2.095-0.751v1.015c-0.593,0.43-1.376,0.646-2.352,0.646c-0.953,0-1.702-0.307-2.246-0.919
		c-0.544-0.613-0.817-1.475-0.817-2.585c0-1.05,0.297-1.905,0.893-2.566c0.595-0.661,1.334-0.991,2.217-0.991
		c0.882,0,1.565,0.285,2.048,0.856c0.483,0.571,0.725,1.363,0.725,2.378V10.163z M69.379,9.248
		c-0.004-0.624-0.155-1.109-0.451-1.456c-0.296-0.347-0.708-0.521-1.235-0.521c-0.509,0-0.942,0.183-1.297,0.547
		c-0.356,0.365-0.576,0.841-0.659,1.43H69.379z M69.208,3.082l-1.726,2.161h-0.837l1.469-2.161H69.208z"/>
	<path fill="#FFFFFF" d="M77.392,12.956c-0.518,0.312-1.133,0.468-1.844,0.468c-0.962,0-1.738-0.313-2.329-0.939
		c-0.591-0.625-0.886-1.437-0.886-2.434c0-1.111,0.318-2.004,0.955-2.678c0.637-0.674,1.487-1.011,2.549-1.011
		c0.593,0,1.116,0.11,1.568,0.329v1.107c-0.5-0.352-1.037-0.527-1.607-0.527c-0.689,0-1.255,0.247-1.696,0.741
		s-0.662,1.143-0.662,1.947c0,0.791,0.208,1.414,0.622,1.871c0.415,0.457,0.972,0.685,1.67,0.685c0.588,0,1.142-0.195,1.66-0.586
		V12.956z"/>
	<path fill="#FFFFFF" d="M85.299,13.266h-1.081V9.379c0-1.405-0.522-2.108-1.568-2.108c-0.527,0-0.97,0.204-1.331,0.609
		c-0.36,0.406-0.54,0.928-0.54,1.564v3.821h-1.081V3.279h1.081V7.64h0.026c0.518-0.852,1.256-1.278,2.213-1.278
		c1.52,0,2.279,0.916,2.279,2.747V13.266z"/>
	<path fill="#FFFFFF" d="M92.837,13.266h-1.08v-1.054H91.73c-0.47,0.808-1.162,1.212-2.075,1.212c-0.672,0-1.198-0.178-1.577-0.534
		c-0.38-0.355-0.57-0.828-0.57-1.416c0-1.261,0.742-1.994,2.227-2.2l2.022-0.283c0-1.146-0.464-1.72-1.39-1.72
		c-0.813,0-1.546,0.277-2.2,0.83V6.995c0.663-0.422,1.427-0.632,2.292-0.632c1.585,0,2.378,0.839,2.378,2.516V13.266z M91.757,9.854
		l-1.627,0.224c-0.501,0.07-0.879,0.194-1.133,0.373c-0.255,0.178-0.383,0.493-0.383,0.945c0,0.329,0.118,0.598,0.353,0.807
		c0.235,0.209,0.548,0.313,0.938,0.313c0.536,0,0.979-0.188,1.328-0.563c0.349-0.375,0.523-0.851,0.523-1.426V9.854z"/>
	<path fill="#FFFFFF" d="M99.065,7.614c-0.189-0.145-0.461-0.217-0.817-0.217c-0.461,0-0.846,0.217-1.155,0.652
		c-0.311,0.435-0.465,1.028-0.465,1.779v3.438h-1.08V6.52h1.08v1.39h0.026c0.153-0.474,0.389-0.844,0.705-1.11
		c0.315-0.266,0.669-0.398,1.061-0.398c0.28,0,0.496,0.031,0.646,0.092V7.614z"/>
	<path fill="#FFFFFF" d="M106.669,12.726c0,2.477-1.186,3.715-3.557,3.715c-0.835,0-1.563-0.158-2.188-0.475v-1.08
		c0.76,0.421,1.484,0.632,2.174,0.632c1.66,0,2.49-0.883,2.49-2.648v-0.738h-0.026c-0.514,0.86-1.287,1.291-2.318,1.291
		c-0.839,0-1.515-0.3-2.026-0.899c-0.512-0.599-0.767-1.404-0.767-2.414c0-1.146,0.275-2.058,0.826-2.734s1.306-1.014,2.263-1.014
		c0.909,0,1.583,0.364,2.022,1.093h0.026V6.52h1.08V12.726z M105.589,10.216V9.221c0-0.536-0.182-0.995-0.544-1.377
		c-0.362-0.382-0.813-0.573-1.354-0.573c-0.667,0-1.189,0.243-1.567,0.728s-0.566,1.165-0.566,2.039c0,0.75,0.181,1.351,0.543,1.801
		s0.843,0.675,1.439,0.675c0.606,0,1.099-0.215,1.479-0.646C105.398,11.439,105.589,10.888,105.589,10.216z"/>
	<path fill="#FFFFFF" d="M114.952,10.163h-4.763c0.018,0.751,0.22,1.331,0.606,1.739c0.386,0.409,0.918,0.613,1.594,0.613
		c0.76,0,1.458-0.25,2.095-0.751v1.015c-0.593,0.43-1.377,0.646-2.352,0.646c-0.953,0-1.701-0.307-2.246-0.919
		c-0.545-0.613-0.816-1.475-0.816-2.585c0-1.05,0.297-1.905,0.893-2.566c0.595-0.661,1.333-0.991,2.216-0.991
		s1.565,0.285,2.049,0.856c0.483,0.571,0.725,1.363,0.725,2.378V10.163z M113.846,9.248c-0.005-0.624-0.155-1.109-0.451-1.456
		c-0.297-0.347-0.708-0.521-1.235-0.521c-0.51,0-0.941,0.183-1.298,0.547c-0.355,0.365-0.575,0.841-0.658,1.43H113.846z"/>
	<path fill="#FFFFFF" d="M121.964,6.83l-3.992,5.513h3.952v0.922h-5.539V12.93l3.991-5.487h-3.616V6.52h5.204V6.83z"/>
	<path fill="#FFFFFF" d="M127.996,13.022v-1.16c0.588,0.435,1.235,0.652,1.942,0.652c0.949,0,1.423-0.316,1.423-0.949
		c0-0.18-0.04-0.333-0.121-0.458c-0.082-0.125-0.191-0.236-0.33-0.333c-0.138-0.097-0.301-0.184-0.487-0.26
		c-0.187-0.077-0.388-0.157-0.603-0.241c-0.299-0.119-0.562-0.238-0.787-0.359c-0.227-0.121-0.415-0.257-0.566-0.408
		c-0.151-0.152-0.266-0.324-0.343-0.517c-0.077-0.193-0.115-0.419-0.115-0.679c0-0.316,0.072-0.596,0.218-0.84
		c0.145-0.244,0.338-0.448,0.579-0.613c0.241-0.165,0.518-0.289,0.827-0.372s0.629-0.125,0.958-0.125
		c0.584,0,1.106,0.101,1.568,0.303v1.094c-0.497-0.325-1.067-0.488-1.713-0.488c-0.202,0-0.385,0.023-0.547,0.069
		c-0.162,0.046-0.302,0.111-0.418,0.194c-0.117,0.083-0.207,0.184-0.271,0.3s-0.096,0.245-0.096,0.385
		c0,0.176,0.032,0.323,0.096,0.441s0.157,0.224,0.28,0.316c0.123,0.092,0.271,0.175,0.447,0.25s0.376,0.156,0.6,0.244
		c0.299,0.114,0.566,0.232,0.804,0.353c0.237,0.121,0.439,0.257,0.606,0.409c0.167,0.151,0.295,0.326,0.385,0.523
		s0.136,0.433,0.136,0.705c0,0.333-0.074,0.624-0.221,0.869c-0.147,0.246-0.344,0.45-0.59,0.613s-0.529,0.283-0.85,0.362
		c-0.321,0.079-0.657,0.119-1.008,0.119C129.106,13.424,128.505,13.29,127.996,13.022z"/>
	<path fill="#FFFFFF" d="M140.258,13.266h-1.08v-1.067h-0.026c-0.448,0.816-1.143,1.225-2.082,1.225
		c-1.607,0-2.411-0.958-2.411-2.872V6.52h1.074v3.86c0,1.423,0.544,2.134,1.634,2.134c0.526,0,0.96-0.194,1.301-0.583
		c0.34-0.389,0.511-0.897,0.511-1.525V6.52h1.08V13.266z"/>
	<path fill="#FFFFFF" d="M146.631,7.614c-0.189-0.145-0.461-0.217-0.817-0.217c-0.461,0-0.846,0.217-1.155,0.652
		c-0.311,0.435-0.465,1.028-0.465,1.779v3.438h-1.08V6.52h1.08v1.39h0.026c0.153-0.474,0.389-0.844,0.705-1.11
		c0.315-0.266,0.669-0.398,1.061-0.398c0.28,0,0.496,0.031,0.646,0.092V7.614z"/>
</g>
<g>
	<path fill="#FFFFFF" d="M51.739,36.047h-2.807V17.788h2.807V36.047z"/>
	<path fill="#FFFFFF" d="M59.934,18.438l-1.963,5.359h-1.843l1.361-5.359H59.934z"/>
</g>
</svg>
