<svg xmlns="http://www.w3.org/2000/svg" width="172" height="40"><path fill="#FFF" stroke="#FFF" stroke-width=".236" stroke-miterlimit="10" d="M52.26 11.86c0 .99-.3 1.78-.88 2.37-.67.7-1.54 1.05-2.61 1.05-1.02 0-1.89-.36-2.61-1.06-.72-.71-1.07-1.59-1.07-2.64s.36-1.93 1.07-2.64c.71-.71 1.59-1.07 2.61-1.07.51 0 .99.1 1.45.3.46.2.84.46 1.11.79l-.62.62c-.47-.56-1.12-.84-1.95-.84-.74 0-1.39.26-1.94.78-.54.53-.81 1.21-.81 2.04 0 .84.27 1.52.81 2.05.55.52 1.19.78 1.94.78.79 0 1.45-.27 1.98-.79.35-.35.54-.83.59-1.44h-2.57v-.85h3.43c.05.2.07.38.07.55zM57.7 8.9h-3.22v2.25h2.91V12h-2.91v2.25h3.22v.87h-4.14V8.03h4.14v.87zm3.85 6.21h-.91V8.9h-1.98v-.87h4.87v.87h-1.98v6.21zm5.5 0V8.03h.91v7.08h-.91zm4.95 0h-.91V8.9H69.1v-.87h4.88v.87H72v6.21zm11.2-.91c-.7.72-1.56 1.07-2.6 1.07s-1.9-.36-2.6-1.07c-.7-.71-1.04-1.59-1.04-2.63 0-1.04.35-1.92 1.04-2.63.7-.72 1.56-1.07 2.6-1.07 1.03 0 1.89.36 2.59 1.08.7.72 1.05 1.59 1.05 2.62.01 1.04-.34 1.92-1.04 2.63zm-4.52-.59c.53.53 1.17.8 1.93.8s1.4-.27 1.92-.8.79-1.21.79-2.04-.27-1.51-.79-2.04-1.17-.8-1.92-.8c-.76 0-1.4.27-1.93.8-.52.53-.79 1.21-.79 2.04s.27 1.51.79 2.04zm6.85 1.5V8.03h1.11l3.44 5.51h.04l-.04-1.36V8.03h.91v7.08h-.95l-3.61-5.78h-.04l.04 1.37v4.41h-.9z" transform="matrix(1.25299 0 0 1.23841 -9.796 -9.594)"/><path fill="#FFF" d="M86.359 21.936c-3.483 0-6.315 2.613-6.315 6.23 0 3.579 2.844 6.216 6.315 6.216 3.483 0 6.328-2.637 6.328-6.216-.013-3.617-2.845-6.23-6.328-6.23zm0 9.994c-1.905 0-3.546-1.56-3.546-3.777 0-2.241 1.641-3.777 3.546-3.777 1.904 0 3.558 1.523 3.558 3.777 0 2.217-1.654 3.777-3.558 3.777zm-13.796-9.994c-3.483 0-6.315 2.613-6.315 6.23 0 3.579 2.832 6.216 6.315 6.216 3.484 0 6.316-2.637 6.316-6.216.012-3.617-2.832-6.23-6.316-6.23zm0 9.994c-1.904 0-3.558-1.56-3.558-3.777 0-2.241 1.641-3.777 3.558-3.777 1.905 0 3.546 1.523 3.546 3.777.013 2.217-1.628 3.777-3.546 3.777zm-16.401-8.086v2.65h6.39c-.188 1.474-.69 2.563-1.453 3.319-.928.916-2.381 1.932-4.937 1.932-3.935 0-7.017-3.134-7.017-7.022s3.082-7.022 7.017-7.022c2.13 0 3.671.817 4.811 1.882l1.892-1.87c-1.591-1.51-3.721-2.662-6.703-2.662-5.388 0-9.924 4.334-9.924 9.672s4.536 9.672 9.924 9.672c2.92 0 5.1-.941 6.829-2.712 1.766-1.746 2.318-4.198 2.318-6.168 0-.619-.05-1.176-.15-1.647 0-.024-8.997-.024-8.997-.024zm67.085 2.043c-.526-1.387-2.13-3.963-5.388-3.963-3.233 0-5.94 2.526-5.94 6.23 0 3.492 2.67 6.216 6.24 6.216 2.895 0 4.562-1.746 5.25-2.762l-2.142-1.411c-.714 1.04-1.691 1.721-3.107 1.721-1.404 0-2.406-.632-3.045-1.882l8.42-3.443-.288-.706zm-8.596 2.08c-.075-2.402 1.892-3.628 3.283-3.628 1.103 0 2.03.545 2.343 1.325.013-.012-5.626 2.304-5.626 2.304zM107.811 34h2.768V15.707h-2.769V34zm-4.537-10.676h-.087c-.627-.73-1.805-1.387-3.308-1.387-3.158 0-6.04 2.737-6.04 6.242 0 3.492 2.882 6.204 6.04 6.204 1.503 0 2.694-.668 3.308-1.411h.087v.891c0 2.378-1.29 3.654-3.358 3.654-1.691 0-2.744-1.202-3.17-2.217l-2.406.99c.69 1.648 2.531 3.679 5.576 3.679 3.246 0 5.99-1.883 5.99-6.477V22.32h-2.62v1.002zm-3.157 8.607c-1.905 0-3.509-1.572-3.509-3.752 0-2.192 1.592-3.79 3.509-3.79 1.88 0 3.358 1.598 3.358 3.79 0 2.18-1.479 3.752-3.358 3.752zm36.086-16.223h-6.616V34h2.757v-6.936h3.859c3.07 0 6.077-2.192 6.077-5.684 0-3.48-3.02-5.672-6.077-5.672zm.075 8.818h-3.934v-6.267h3.934c2.067 0 3.233 1.697 3.233 3.134 0 1.411-1.166 3.133-3.233 3.133zm17.066-2.626c-1.992 0-4.072.867-4.924 2.8l2.455 1.015c.527-1.016 1.491-1.35 2.519-1.35 1.428 0 2.882.854 2.907 2.353v.198c-.501-.285-1.566-.706-2.882-.706-2.644 0-5.325 1.437-5.325 4.111 0 2.453 2.167 4.025 4.586 4.025 1.854 0 2.882-.83 3.533-1.795h.1v1.411h2.67V26.94c-.013-3.22-2.457-5.04-5.64-5.04zm-.326 10.019c-.902 0-2.168-.446-2.168-1.548 0-1.412 1.567-1.957 2.932-1.957 1.216 0 1.792.26 2.519.62-.213 1.696-1.692 2.885-3.283 2.885zm15.675-9.622l-3.17 7.925h-.1l-3.283-7.925h-2.982l4.924 11.083-2.82 6.168h2.883l7.593-17.251h-3.045zM143.796 34h2.77V15.707h-2.77V34z"/><g transform="matrix(1.25299 0 0 -1.23841 -9.796 49.85)"><linearGradient id="a" gradientUnits="userSpaceOnUse" x1="29.542" y1="162.705" x2="4.754" y2="137.917" gradientTransform="matrix(1.0024 0 0 -.9907 -7.627 172.468)"><stop offset="0" stop-color="#00a0ff"/><stop offset=".007" stop-color="#00a1ff"/><stop offset=".26" stop-color="#00beff"/><stop offset=".512" stop-color="#00d2ff"/><stop offset=".76" stop-color="#00dfff"/><stop offset="1" stop-color="#00e3ff"/></linearGradient><path fill="url(#a)" d="M8.56 39.34c-.35-.36-.55-.93-.55-1.66V11.54c0-.73.2-1.3.55-1.66l.08-.08 14.64 14.64v.35L8.64 39.42l-.08-.08z"/></g><g transform="matrix(1.25299 0 0 -1.23841 -9.796 49.85)"><linearGradient id="b" gradientUnits="userSpaceOnUse" x1="43.729" y1="149.238" x2="7.99" y2="149.238" gradientTransform="matrix(1.0024 0 0 -.9907 -7.627 172.468)"><stop offset="0" stop-color="#ffe000"/><stop offset=".409" stop-color="#ffbd00"/><stop offset=".775" stop-color="orange"/><stop offset="1" stop-color="#ff9c00"/></linearGradient><path fill="url(#b)" d="M28.16 19.56l-4.88 4.88v.35l4.88 4.88.11-.06 5.78-3.29c1.65-.93 1.65-2.47 0-3.41l-5.78-3.28-.11-.07z"/></g><g transform="matrix(1.25299 0 0 -1.23841 -9.796 49.85)"><linearGradient id="c" gradientUnits="userSpaceOnUse" x1="23.275" y1="156.452" x2="-10.339" y2="122.838" gradientTransform="matrix(1.0024 0 0 -.9907 -7.627 172.468)"><stop offset="0" stop-color="#ff3a44"/><stop offset="1" stop-color="#c31162"/></linearGradient><path fill="url(#c)" d="M28.28 19.62l-4.99 4.99L8.56 9.88c.55-.57 1.44-.64 2.46-.07l17.26 9.81"/></g><g transform="matrix(1.25299 0 0 -1.23841 -9.796 49.85)"><linearGradient id="d" gradientUnits="userSpaceOnUse" x1="2.614" y1="162.932" x2="17.624" y2="147.922" gradientTransform="matrix(1.0024 0 0 -.9907 -7.627 172.468)"><stop offset="0" stop-color="#32a071"/><stop offset=".069" stop-color="#2da771"/><stop offset=".476" stop-color="#15cf74"/><stop offset=".801" stop-color="#06e775"/><stop offset="1" stop-color="#00f076"/></linearGradient><path fill="url(#d)" d="M28.28 29.6l-17.26 9.81c-1.02.57-1.91.5-2.46-.08l14.73-14.72 4.99 4.99z"/></g></svg>