<?xml version="1.0" encoding="utf-8"?>
<!-- Generator: Adobe Illustrator 16.0.0, SVG Export Plug-In . SVG Version: 6.00 Build 0)  -->
<!DOCTYPE svg PUBLIC "-//W3C//DTD SVG 1.1//EN" "http://www.w3.org/Graphics/SVG/1.1/DTD/svg11.dtd">
<svg version="1.1" id="Layer_1" xmlns="http://www.w3.org/2000/svg" xmlns:xlink="http://www.w3.org/1999/xlink" x="0px" y="0px"
	 width="172px" height="40px" viewBox="0 0 172 40" enable-background="new 0 0 172 40" xml:space="preserve">
<path stroke="#FFFFFF" stroke-width="0.236" stroke-miterlimit="10" d="M55.685,5.094c0,1.226-0.375,2.204-1.103,2.935
	c-0.839,0.867-1.93,1.3-3.27,1.3c-1.278,0-2.368-0.446-3.271-1.313c-0.902-0.879-1.341-1.969-1.341-3.27
	c0-1.3,0.451-2.39,1.341-3.269s1.992-1.325,3.271-1.325c0.639,0,1.24,0.124,1.817,0.372c0.576,0.248,1.052,0.569,1.391,0.978
	L53.743,2.27C53.154,1.577,52.34,1.23,51.3,1.23c-0.927,0-1.742,0.322-2.431,0.966c-0.677,0.656-1.015,1.499-1.015,2.526
	c0,1.04,0.338,1.882,1.015,2.539c0.689,0.644,1.491,0.966,2.431,0.966c0.99,0,1.817-0.334,2.481-0.978
	c0.438-0.434,0.677-1.028,0.739-1.783H51.3V4.413h4.298C55.66,4.66,55.685,4.883,55.685,5.094z M62.501,1.428h-4.035v2.787h3.646
	v1.053h-3.646v2.786h4.035v1.078h-5.188v-8.78h5.188V1.428z M67.326,9.119h-1.141V1.428h-2.48V0.351h6.102v1.077h-2.481V9.119z
	 M74.217,9.119V0.351h1.141v8.768H74.217z M80.419,9.119h-1.141V1.428h-2.493V0.351H82.9v1.077h-2.481V9.119z M94.453,7.992
	c-0.877,0.892-1.955,1.325-3.258,1.325s-2.381-0.446-3.258-1.325c-0.877-0.879-1.303-1.969-1.303-3.257s0.438-2.377,1.303-3.257
	c0.877-0.892,1.955-1.325,3.258-1.325c1.29,0,2.367,0.446,3.245,1.337c0.877,0.892,1.315,1.969,1.315,3.245
	C95.769,6.022,95.33,7.112,94.453,7.992z M88.789,7.261c0.664,0.656,1.467,0.991,2.418,0.991c0.953,0,1.755-0.334,2.406-0.991
	s0.99-1.499,0.99-2.526s-0.339-1.87-0.99-2.526s-1.466-0.991-2.406-0.991c-0.951,0-1.754,0.334-2.418,0.991
	c-0.651,0.656-0.99,1.499-0.99,2.526S88.138,6.604,88.789,7.261z M97.372,9.119V0.351h1.392l4.31,6.824h0.05l-0.05-1.685V0.351h1.14
	v8.768h-1.189L98.5,1.96h-0.051L98.5,3.657v5.462H97.372L97.372,9.119z"/>
<path d="M86.359,21.936c-3.483,0-6.315,2.613-6.315,6.23c0,3.579,2.844,6.216,6.315,6.216c3.483,0,6.329-2.637,6.329-6.216
	C92.674,24.549,89.842,21.936,86.359,21.936z M86.359,31.93c-1.905,0-3.546-1.56-3.546-3.777c0-2.24,1.641-3.776,3.546-3.776
	s3.558,1.522,3.558,3.776C89.917,30.37,88.264,31.93,86.359,31.93z M72.563,21.936c-3.483,0-6.315,2.613-6.315,6.23
	c0,3.579,2.832,6.216,6.315,6.216c3.484,0,6.316-2.637,6.316-6.216C78.891,24.549,76.047,21.936,72.563,21.936z M72.563,31.93
	c-1.904,0-3.558-1.56-3.558-3.777c0-2.24,1.641-3.776,3.558-3.776c1.905,0,3.546,1.522,3.546,3.776
	C76.122,30.37,74.481,31.93,72.563,31.93z M56.162,23.844v2.65h6.39c-0.188,1.475-0.69,2.563-1.453,3.318
	c-0.928,0.916-2.381,1.933-4.937,1.933c-3.935,0-7.017-3.134-7.017-7.022c0-3.888,3.082-7.021,7.017-7.021
	c2.13,0,3.671,0.817,4.811,1.882l1.892-1.87c-1.591-1.51-3.721-2.662-6.703-2.662c-5.388,0-9.924,4.334-9.924,9.671
	c0,5.338,4.536,9.672,9.924,9.672c2.92,0,5.1-0.94,6.829-2.711c1.766-1.746,2.318-4.199,2.318-6.168c0-0.619-0.05-1.177-0.15-1.647
	C65.159,23.844,56.162,23.844,56.162,23.844z M123.247,25.887c-0.526-1.387-2.13-3.963-5.388-3.963c-3.233,0-5.94,2.526-5.94,6.23
	c0,3.492,2.67,6.216,6.24,6.216c2.896,0,4.562-1.746,5.25-2.763l-2.142-1.41c-0.715,1.039-1.691,1.721-3.107,1.721
	c-1.404,0-2.406-0.632-3.045-1.882l8.42-3.442L123.247,25.887z M114.65,27.967c-0.074-2.402,1.893-3.628,3.283-3.628
	c1.104,0,2.03,0.545,2.344,1.325c0.013-0.012-5.627,2.305-5.627,2.305V27.967z M107.811,34h2.769V15.707h-2.769V34L107.811,34z
	 M103.273,23.324h-0.086c-0.627-0.73-1.806-1.387-3.309-1.387c-3.158,0-6.04,2.736-6.04,6.242c0,3.491,2.882,6.203,6.04,6.203
	c1.503,0,2.693-0.668,3.309-1.41h0.086v0.891c0,2.378-1.289,3.654-3.357,3.654c-1.691,0-2.744-1.203-3.17-2.218l-2.406,0.99
	c0.689,1.647,2.531,3.679,5.576,3.679c3.246,0,5.99-1.883,5.99-6.477V22.32h-2.62v1.002L103.273,23.324z M100.117,31.932
	c-1.905,0-3.51-1.572-3.51-3.752c0-2.193,1.593-3.791,3.51-3.791c1.88,0,3.357,1.598,3.357,3.791
	C103.475,30.359,101.996,31.932,100.117,31.932z M136.203,15.708h-6.616V34h2.757v-6.936h3.859c3.07,0,6.076-2.192,6.076-5.685
	C142.279,17.9,139.26,15.708,136.203,15.708z M136.277,24.525h-3.934v-6.267h3.934c2.068,0,3.234,1.697,3.234,3.134
	C139.512,22.805,138.346,24.525,136.277,24.525z M153.344,21.9c-1.992,0-4.072,0.867-4.924,2.8l2.455,1.015
	c0.527-1.016,1.491-1.35,2.52-1.35c1.428,0,2.881,0.854,2.906,2.354v0.197c-0.501-0.285-1.566-0.706-2.882-0.706
	c-2.644,0-5.325,1.437-5.325,4.11c0,2.453,2.168,4.025,4.586,4.025c1.854,0,2.883-0.83,3.533-1.795h0.1v1.411h2.67v-7.022
	C158.971,23.721,156.525,21.9,153.344,21.9L153.344,21.9z M153.018,31.919c-0.901,0-2.168-0.446-2.168-1.548
	c0-1.412,1.567-1.957,2.932-1.957c1.217,0,1.793,0.26,2.52,0.62C156.088,30.73,154.609,31.919,153.018,31.919z M168.693,22.297
	l-3.17,7.926h-0.101l-3.282-7.926h-2.982l4.924,11.083l-2.82,6.168h2.883l7.594-17.251H168.693z M143.796,34h2.771V15.707h-2.771V34
	z"/>
<g transform="matrix(1.25299 0 0 -1.23841 -9.796 49.85)">
	
		<linearGradient id="SVGID_1_" gradientUnits="userSpaceOnUse" x1="-164.4191" y1="14.8056" x2="-189.2071" y2="-9.9824" gradientTransform="matrix(1.256 0 0 -1.2269 228.5693 29.5134)">
		<stop  offset="0" style="stop-color:#00A0FF"/>
		<stop  offset="0.007" style="stop-color:#00A1FF"/>
		<stop  offset="0.26" style="stop-color:#00BEFF"/>
		<stop  offset="0.512" style="stop-color:#00D2FF"/>
		<stop  offset="0.76" style="stop-color:#00DFFF"/>
		<stop  offset="1" style="stop-color:#00E3FF"/>
	</linearGradient>
	<path fill="url(#SVGID_1_)" d="M8.56,39.34c-0.35-0.36-0.55-0.93-0.55-1.66V11.54c0-0.73,0.2-1.3,0.55-1.661l0.08-0.079
		L23.28,24.44v0.35L8.64,39.42L8.56,39.34z"/>
</g>
<g transform="matrix(1.25299 0 0 -1.23841 -9.796 49.85)">
	
		<linearGradient id="SVGID_2_" gradientUnits="userSpaceOnUse" x1="-153.1543" y1="3.992" x2="-188.8933" y2="3.992" gradientTransform="matrix(1.256 0 0 -1.2269 228.5693 29.5134)">
		<stop  offset="0" style="stop-color:#FFE000"/>
		<stop  offset="0.409" style="stop-color:#FFBD00"/>
		<stop  offset="0.775" style="stop-color:#FFA500"/>
		<stop  offset="1" style="stop-color:#FF9C00"/>
	</linearGradient>
	<path fill="url(#SVGID_2_)" d="M28.16,19.56l-4.88,4.88v0.35l4.88,4.88l0.11-0.06l5.78-3.29c1.65-0.93,1.65-2.47,0-3.411
		l-5.78-3.28L28.16,19.56z"/>
</g>
<g transform="matrix(1.25299 0 0 -1.23841 -9.796 49.85)">
	
		<linearGradient id="SVGID_3_" gradientUnits="userSpaceOnUse" x1="-169.4824" y1="9.8187" x2="-203.0964" y2="-23.7953" gradientTransform="matrix(1.256 0 0 -1.2269 228.5693 29.5134)">
		<stop  offset="0" style="stop-color:#FF3A44"/>
		<stop  offset="1" style="stop-color:#C31162"/>
	</linearGradient>
	<path fill="url(#SVGID_3_)" d="M28.28,19.62l-4.99,4.99L8.56,9.879C9.11,9.31,10,9.24,11.02,9.81L28.28,19.62"/>
</g>
<g transform="matrix(1.25299 0 0 -1.23841 -9.796 49.85)">
	
		<linearGradient id="SVGID_4_" gradientUnits="userSpaceOnUse" x1="-186.0592" y1="14.9499" x2="-171.0512" y2="-0.0581" gradientTransform="matrix(1.256 0 0 -1.2269 228.5693 29.5134)">
		<stop  offset="0" style="stop-color:#32A071"/>
		<stop  offset="0.069" style="stop-color:#2DA771"/>
		<stop  offset="0.476" style="stop-color:#15CF74"/>
		<stop  offset="0.801" style="stop-color:#06E775"/>
		<stop  offset="1" style="stop-color:#00F076"/>
	</linearGradient>
	<path fill="url(#SVGID_4_)" d="M28.28,29.6l-17.26,9.81c-1.02,0.57-1.91,0.5-2.46-0.08l14.73-14.72L28.28,29.6z"/>
</g>
</svg>
