<svg xmlns="http://www.w3.org/2000/svg" width="168" height="46"><path d="M27 21.43c-.04-4.92 4.03-7.31 4.21-7.42-2.31-3.36-5.88-3.82-7.14-3.86-3-.32-5.91 1.8-7.44 1.8-1.56 0-3.91-1.77-6.45-1.71-3.27.05-6.32 1.94-8 4.88-3.46 5.99-.88 14.79 2.43 19.63 1.66 2.37 3.59 5.02 6.13 4.92 2.48-.1 3.41-1.58 6.4-1.58 2.97 0 3.84 1.58 6.42 1.52 2.66-.04 4.34-2.38 5.94-4.77 1.92-2.72 2.68-5.39 2.72-5.53-.06-.04-5.17-1.99-5.22-7.88zM22.11 6.96c1.33-1.67 2.25-3.94 1.99-6.24-1.93.09-4.35 1.34-5.74 2.97-1.23 1.44-2.33 3.79-2.05 6.01 2.19.16 4.41-1.1 5.8-2.74zm40.78 32.35h-3.47l-1.9-5.97h-6.6l-1.81 5.97h-3.37L52.28 19h4.04l6.57 20.31zm-5.93-8.47l-1.72-5.3c-.18-.54-.52-1.82-1.02-3.83h-.06c-.2.86-.52 2.14-.96 3.83l-1.69 5.3h5.45zm22.75.97c0 2.49-.67 4.46-2.02 5.91-1.21 1.29-2.7 1.93-4.49 1.93-1.93 0-3.32-.69-4.16-2.08h-.06v7.72h-3.25v-15.8c0-1.57-.04-3.17-.12-4.82h2.86l.18 2.32h.06c1.09-1.75 2.73-2.62 4.94-2.62 1.73 0 3.17.68 4.32 2.05 1.16 1.36 1.74 3.16 1.74 5.39zm-3.32.12c0-1.43-.32-2.6-.96-3.53-.7-.96-1.65-1.45-2.83-1.45-.8 0-1.53.27-2.18.8-.65.53-1.08 1.23-1.28 2.1-.1.4-.15.73-.15.99v2.44c0 1.07.33 1.96.98 2.7.65.73 1.5 1.1 2.55 1.1 1.23 0 2.18-.47 2.86-1.42.67-.94 1.01-2.18 1.01-3.73zm20.16-.12c0 2.49-.67 4.46-2.02 5.91-1.2 1.29-2.7 1.93-4.49 1.93-1.93 0-3.32-.69-4.16-2.08h-.06v7.72h-3.25v-15.8c0-1.57-.04-3.17-.12-4.82h2.86l.18 2.32h.06c1.08-1.75 2.73-2.62 4.94-2.62 1.73 0 3.17.68 4.33 2.05 1.16 1.36 1.73 3.16 1.73 5.39zm-3.31.12c0-1.43-.32-2.6-.97-3.53-.7-.96-1.65-1.45-2.83-1.45-.8 0-1.53.27-2.19.8-.65.53-1.08 1.23-1.28 2.1-.1.4-.15.73-.15.99v2.44c0 1.07.33 1.96.98 2.7.65.73 1.5 1.1 2.55 1.1 1.23 0 2.18-.47 2.86-1.42.69-.94 1.03-2.18 1.03-3.73zm22.15 1.69c0 1.73-.6 3.13-1.8 4.22-1.32 1.19-3.17 1.78-5.53 1.78-2.19 0-3.94-.42-5.26-1.27l.75-2.71c1.43.86 3 1.3 4.7 1.3 1.23 0 2.18-.28 2.86-.83.68-.55 1.02-1.29 1.02-2.22 0-.82-.28-1.52-.84-2.08-.56-.56-1.5-1.09-2.8-1.57-3.56-1.33-5.33-3.27-5.33-5.82 0-1.67.62-3.04 1.87-4.1 1.24-1.07 2.9-1.6 4.97-1.6 1.85 0 3.38.32 4.61.96l-.81 2.65c-1.14-.62-2.44-.93-3.89-.93-1.14 0-2.04.28-2.68.84-.54.5-.81 1.11-.81 1.84 0 .8.31 1.47.93 1.99.54.48 1.53 1 2.95 1.57 1.75.7 3.03 1.53 3.86 2.47.82.93 1.23 2.1 1.23 3.51zm10.76-6.51h-3.59v7.11c0 1.81.63 2.71 1.9 2.71.58 0 1.06-.05 1.45-.15l.09 2.47c-.64.24-1.49.36-2.53.36-1.29 0-2.29-.39-3.01-1.18-.72-.78-1.09-2.1-1.09-3.95V27.1h-2.14v-2.44h2.14v-2.68l3.2-.96v3.65h3.59l-.01 2.44zm16.18 4.76c0 2.25-.64 4.1-1.93 5.55-1.35 1.49-3.14 2.23-5.37 2.23-2.15 0-3.86-.71-5.14-2.14s-1.91-3.23-1.91-5.39c0-2.27.66-4.13 1.97-5.57 1.31-1.45 3.09-2.17 5.32-2.17 2.15 0 3.88.71 5.18 2.14 1.26 1.37 1.88 3.16 1.88 5.35zm-3.38.11c0-1.35-.29-2.51-.87-3.48-.68-1.17-1.66-1.75-2.92-1.75-1.31 0-2.3.58-2.98 1.75-.58.97-.87 2.14-.87 3.54 0 1.35.29 2.51.87 3.47.7 1.17 1.69 1.75 2.95 1.75 1.24 0 2.22-.6 2.92-1.78.6-.98.9-2.16.9-3.5zm13.96-4.45c-.32-.06-.67-.09-1.03-.09-1.14 0-2.03.43-2.65 1.3-.54.76-.81 1.73-.81 2.89v7.68h-3.25l.03-10.03c0-1.69-.04-3.23-.12-4.61h2.83l.12 2.8h.09c.34-.96.89-1.74 1.63-2.32.72-.52 1.51-.78 2.35-.78.3 0 .57.02.81.06v3.1zm14.55 3.77c0 .58-.04 1.07-.12 1.48h-9.76c.04 1.45.51 2.55 1.42 3.32.82.68 1.89 1.02 3.19 1.02 1.45 0 2.76-.23 3.95-.69l.51 2.26c-1.39.6-3.02.91-4.91.91-2.27 0-4.05-.67-5.35-2-1.29-1.34-1.94-3.13-1.94-5.38 0-2.21.6-4.05 1.81-5.51 1.26-1.57 2.97-2.35 5.12-2.35 2.11 0 3.71.78 4.79 2.35.86 1.22 1.29 2.76 1.29 4.59zm-3.1-.85c.02-.96-.19-1.8-.63-2.5-.56-.91-1.43-1.36-2.59-1.36-1.06 0-1.93.44-2.59 1.33-.54.7-.86 1.55-.96 2.53h6.77zM55.88 6.51c0 1.8-.54 3.15-1.61 4.06-1 .84-2.41 1.26-4.25 1.26-.91 0-1.69-.04-2.34-.12V1.89c.85-.14 1.77-.21 2.75-.21 1.75 0 3.06.38 3.95 1.14 1 .86 1.5 2.09 1.5 3.69zm-1.69.04c0-1.16-.31-2.06-.92-2.68-.62-.62-1.52-.93-2.7-.93-.5 0-.93.03-1.29.1v7.46c.2.03.56.04 1.08.04 1.22 0 2.17-.34 2.83-1.02.67-.67 1-1.67 1-2.97zm10.63 1.53c0 1.11-.32 2.01-.95 2.72-.66.73-1.54 1.1-2.64 1.1-1.06 0-1.9-.35-2.52-1.05-.63-.7-.94-1.58-.94-2.65 0-1.11.32-2.03.97-2.74.65-.71 1.52-1.07 2.61-1.07 1.06 0 1.9.35 2.55 1.05.62.68.92 1.56.92 2.64zm-1.66.05c0-.66-.14-1.23-.43-1.71-.34-.57-.81-.86-1.43-.86-.64 0-1.13.29-1.47.86-.29.47-.43 1.05-.43 1.74 0 .66.14 1.23.43 1.71.35.57.83.86 1.45.86.61 0 1.09-.29 1.43-.88.31-.49.45-1.06.45-1.72zm13.65-3.59l-2.25 7.19H73.1l-.93-3.12c-.24-.78-.43-1.56-.58-2.32h-.03c-.14.79-.33 1.56-.58 2.32l-.99 3.12h-1.48l-2.12-7.19h1.64l.81 3.42c.2.81.36 1.58.49 2.31h.03c.12-.6.32-1.37.59-2.29l1.02-3.43h1.3l.98 3.36c.24.82.43 1.61.58 2.37h.04c.11-.74.27-1.53.49-2.37l.87-3.36 1.58-.01zm8.3 7.19h-1.6V7.61c0-1.27-.48-1.9-1.45-1.9-.47 0-.86.17-1.16.52-.29.35-.44.76-.44 1.23v4.27h-1.6V6.59c0-.63-.02-1.32-.06-2.06h1.41l.07 1.12h.04c.19-.35.46-.64.83-.87.43-.27.92-.4 1.45-.4.67 0 1.23.22 1.67.65.55.53.83 1.33.83 2.38v4.32zm4.41 0h-1.6V1.24h1.6v10.49zm9.41-3.65c0 1.11-.32 2.01-.95 2.72-.66.73-1.54 1.1-2.64 1.1-1.06 0-1.9-.35-2.52-1.05-.63-.7-.94-1.58-.94-2.65 0-1.11.32-2.03.97-2.74s1.52-1.07 2.61-1.07c1.06 0 1.9.35 2.55 1.05.62.68.92 1.56.92 2.64zm-1.66.05c0-.66-.14-1.23-.43-1.71-.33-.57-.81-.86-1.43-.86-.64 0-1.13.29-1.47.86-.29.47-.43 1.05-.43 1.74 0 .66.14 1.23.43 1.71.35.57.83.86 1.45.86.61 0 1.09-.29 1.43-.88.31-.49.45-1.06.45-1.72zm9.4 3.6h-1.44l-.12-.83h-.04c-.49.66-1.19.99-2.1.99-.68 0-1.23-.22-1.64-.65-.38-.39-.56-.88-.56-1.47 0-.88.37-1.55 1.1-2.01.74-.46 1.77-.69 3.1-.68v-.13c0-.95-.5-1.42-1.49-1.42-.71 0-1.34.18-1.88.53l-.33-1.05c.67-.41 1.49-.62 2.47-.62 1.88 0 2.82.99 2.82 2.98v2.65c.01.72.05 1.29.11 1.71zm-1.66-2.47V8.15c-1.76-.03-2.65.45-2.65 1.45 0 .38.1.66.31.84.21.19.47.28.78.28.35 0 .68-.11.98-.33.3-.22.49-.51.55-.85.02-.08.03-.17.03-.28zm10.75 2.47h-1.42l-.07-1.16h-.04c-.45.88-1.23 1.32-2.31 1.32-.87 0-1.59-.34-2.16-1.02-.57-.68-.86-1.56-.86-2.65 0-1.16.31-2.11.93-2.83.6-.67 1.34-1.01 2.22-1.01.97 0 1.64.33 2.03.98h.03V1.24h1.6V9.8c0 .69.02 1.34.05 1.93zm-1.65-3.03V7.5c0-.21-.02-.38-.04-.5-.09-.38-.28-.71-.58-.97-.3-.26-.66-.39-1.07-.39-.6 0-1.06.24-1.41.71-.34.47-.51 1.08-.51 1.82 0 .71.16 1.29.49 1.73.35.47.81.71 1.4.71.53 0 .94-.2 1.26-.59.31-.37.46-.81.46-1.32zm15.33-.62c0 1.11-.32 2.01-.95 2.72-.66.73-1.54 1.1-2.64 1.1-1.05 0-1.9-.35-2.52-1.05-.63-.7-.94-1.58-.94-2.65 0-1.11.32-2.03.97-2.74s1.52-1.07 2.61-1.07c1.05 0 1.9.35 2.55 1.05.62.68.92 1.56.92 2.64zm-1.65.05c0-.66-.14-1.23-.43-1.71-.34-.57-.81-.86-1.44-.86-.64 0-1.13.29-1.47.86-.29.47-.43 1.05-.43 1.74 0 .66.14 1.23.43 1.71.35.57.83.86 1.45.86.61 0 1.09-.29 1.44-.88.3-.49.45-1.06.45-1.72zm10.25 3.6h-1.6V7.61c0-1.27-.48-1.9-1.45-1.9-.47 0-.86.17-1.15.52-.3.35-.44.76-.44 1.23v4.27h-1.6V6.59c0-.63-.02-1.32-.06-2.06h1.4l.07 1.12h.04c.19-.35.47-.64.83-.87.44-.27.92-.4 1.45-.4.67 0 1.23.22 1.67.65.55.53.83 1.33.83 2.38v4.32zm10.77-5.99h-1.76v3.5c0 .89.31 1.33.93 1.33.29 0 .53-.02.71-.07l.04 1.21c-.32.12-.73.18-1.24.18-.63 0-1.12-.19-1.48-.58-.36-.38-.53-1.03-.53-1.94V5.74h-1.05v-1.2h1.05V3.22l1.57-.47v1.79h1.76v1.2zm8.47 5.99h-1.6V7.64c0-1.29-.48-1.94-1.45-1.94-.74 0-1.25.37-1.53 1.12-.05.16-.07.35-.07.58v4.33h-1.6V1.24h1.6v4.34h.03c.5-.79 1.23-1.18 2.16-1.18.66 0 1.21.22 1.65.65.54.54.81 1.35.81 2.41v4.27zm8.73-3.94c0 .29-.02.53-.06.72h-4.8c.02.71.25 1.25.69 1.63.41.34.93.5 1.57.5.71 0 1.36-.11 1.94-.34l.25 1.11c-.68.3-1.49.44-2.41.44-1.11 0-1.99-.33-2.63-.98-.64-.66-.95-1.54-.95-2.64 0-1.09.29-1.99.89-2.71.62-.77 1.46-1.15 2.52-1.15 1.03 0 1.82.38 2.35 1.15.43.62.64 1.38.64 2.27zm-1.52-.41c.01-.47-.09-.88-.31-1.23-.28-.44-.7-.67-1.27-.67-.52 0-.95.22-1.27.65-.27.35-.42.76-.47 1.24l3.32.01z" fill="#FFF"/></svg>