<?xml version="1.0" encoding="utf-8"?>
<!-- Generator: Adobe Illustrator 16.0.0, SVG Export Plug-In . SVG Version: 6.00 Build 0)  -->
<!DOCTYPE svg PUBLIC "-//W3C//DTD SVG 1.0//EN" "http://www.w3.org/TR/2001/REC-SVG-20010904/DTD/svg10.dtd">
<svg version="1.0" id="Layer_1" xmlns="http://www.w3.org/2000/svg" xmlns:xlink="http://www.w3.org/1999/xlink" x="0px" y="0px"
	 width="168px" height="46px" viewBox="0 0 168 46" enable-background="new 0 0 168 46" xml:space="preserve">
<path d="M27,21.43c-0.04-4.92,4.03-7.31,4.21-7.42c-2.31-3.36-5.88-3.82-7.14-3.86c-3-0.32-5.91,1.8-7.44,1.8
	c-1.56,0-3.91-1.77-6.45-1.71c-3.27,0.05-6.32,1.94-8,4.88c-3.46,5.99-0.88,14.79,2.43,19.63c1.66,2.37,3.59,5.02,6.13,4.92
	c2.48-0.1,3.41-1.58,6.4-1.58c2.97,0,3.84,1.58,6.42,1.52c2.66-0.039,4.34-2.379,5.94-4.77c1.92-2.72,2.68-5.39,2.72-5.529
	C32.16,29.27,27.05,27.32,27,21.43z M22.11,6.96c1.33-1.67,2.25-3.94,1.99-6.24c-1.93,0.09-4.35,1.34-5.74,2.97
	c-1.23,1.44-2.33,3.79-2.05,6.01C18.5,9.86,20.72,8.6,22.11,6.96z M62.89,39.311h-3.47l-1.9-5.971h-6.6l-1.81,5.971h-3.37L52.28,19
	h4.04L62.89,39.311z M56.96,30.84l-1.72-5.3c-0.18-0.54-0.52-1.819-1.02-3.83h-0.06c-0.2,0.86-0.52,2.14-0.96,3.83l-1.69,5.3H56.96z
	 M79.71,31.811c0,2.489-0.67,4.459-2.02,5.91c-1.21,1.289-2.7,1.93-4.49,1.93c-1.93,0-3.32-0.69-4.16-2.08h-0.06v7.72h-3.25v-15.8
	c0-1.57-0.04-3.17-0.12-4.82h2.86l0.18,2.32h0.06c1.09-1.75,2.73-2.62,4.94-2.62c1.73,0,3.17,0.68,4.32,2.05
	C79.13,27.779,79.71,29.58,79.71,31.811L79.71,31.811z M76.39,31.93c0-1.43-0.32-2.6-0.96-3.529c-0.7-0.961-1.65-1.45-2.83-1.45
	c-0.8,0-1.53,0.271-2.18,0.8s-1.08,1.23-1.28,2.1c-0.1,0.4-0.15,0.73-0.15,0.99v2.439c0,1.07,0.33,1.961,0.98,2.701
	c0.65,0.729,1.5,1.1,2.55,1.1c1.23,0,2.18-0.471,2.86-1.42C76.05,34.721,76.39,33.48,76.39,31.93z M96.55,31.811
	c0,2.489-0.67,4.459-2.021,5.91c-1.199,1.289-2.699,1.93-4.489,1.93c-1.931,0-3.319-0.69-4.16-2.08h-0.06v7.72h-3.25v-15.8
	c0-1.57-0.04-3.17-0.12-4.82h2.86l0.18,2.32h0.06c1.08-1.75,2.729-2.62,4.94-2.62c1.73,0,3.17,0.68,4.33,2.05
	C95.98,27.779,96.55,29.58,96.55,31.811L96.55,31.811z M93.24,31.93c0-1.43-0.32-2.6-0.971-3.529c-0.699-0.961-1.649-1.45-2.83-1.45
	c-0.799,0-1.529,0.271-2.189,0.8c-0.65,0.529-1.08,1.23-1.279,2.1c-0.101,0.4-0.15,0.73-0.15,0.99v2.439
	c0,1.07,0.33,1.961,0.979,2.701c0.65,0.729,1.5,1.1,2.55,1.1c1.23,0,2.18-0.471,2.86-1.42C92.9,34.721,93.24,33.48,93.24,31.93z
	 M115.391,33.62c0,1.729-0.601,3.13-1.801,4.22c-1.32,1.189-3.17,1.78-5.529,1.78c-2.19,0-3.94-0.42-5.261-1.271l0.75-2.709
	c1.431,0.859,3,1.299,4.7,1.299c1.23,0,2.18-0.279,2.859-0.83c0.681-0.549,1.021-1.289,1.021-2.219c0-0.82-0.28-1.521-0.84-2.08
	c-0.56-0.561-1.5-1.09-2.8-1.57c-3.561-1.33-5.33-3.27-5.33-5.82c0-1.67,0.619-3.04,1.869-4.1c1.24-1.07,2.9-1.6,4.971-1.6
	c1.85,0,3.38,0.32,4.609,0.96l-0.81,2.65c-1.14-0.62-2.44-0.93-3.89-0.93c-1.141,0-2.04,0.28-2.68,0.84
	c-0.541,0.5-0.811,1.11-0.811,1.84c0,0.8,0.311,1.47,0.93,1.99c0.541,0.479,1.53,1,2.95,1.57c1.75,0.699,3.03,1.529,3.86,2.469
	C114.98,31.04,115.391,32.21,115.391,33.62z M126.15,27.109h-3.59v7.111c0,1.809,0.629,2.709,1.899,2.709
	c0.58,0,1.06-0.05,1.45-0.15L126,39.25c-0.641,0.24-1.49,0.359-2.529,0.359c-1.291,0-2.291-0.389-3.011-1.18
	c-0.72-0.779-1.09-2.1-1.09-3.949V27.1h-2.14V24.66h2.14v-2.68l3.2-0.96v3.65h3.59L126.15,27.109L126.15,27.109z M142.33,31.87
	c0,2.25-0.641,4.101-1.93,5.55c-1.351,1.49-3.141,2.23-5.371,2.23c-2.149,0-3.859-0.711-5.139-2.141
	c-1.281-1.43-1.91-3.23-1.91-5.39c0-2.271,0.66-4.13,1.97-5.57c1.31-1.45,3.09-2.17,5.319-2.17c2.15,0,3.881,0.71,5.181,2.14
	C141.71,27.891,142.33,29.68,142.33,31.87z M138.95,31.98c0-1.351-0.29-2.51-0.87-3.48c-0.68-1.17-1.66-1.75-2.92-1.75
	c-1.311,0-2.301,0.58-2.98,1.75c-0.58,0.971-0.869,2.141-0.869,3.54c0,1.351,0.289,2.51,0.869,3.47c0.7,1.17,1.69,1.75,2.95,1.75
	c1.24,0,2.22-0.6,2.92-1.779C138.65,34.5,138.95,33.32,138.95,31.98z M152.91,27.529c-0.32-0.059-0.67-0.09-1.03-0.09
	c-1.14,0-2.03,0.431-2.649,1.301c-0.541,0.76-0.811,1.73-0.811,2.89v7.681h-3.25l0.03-10.031c0-1.689-0.04-3.229-0.12-4.609h2.83
	l0.119,2.801h0.091c0.34-0.961,0.89-1.74,1.63-2.32c0.721-0.521,1.51-0.78,2.35-0.78c0.301,0,0.57,0.021,0.811,0.06V27.529z
	 M167.46,31.3c0,0.58-0.04,1.07-0.12,1.479h-9.76c0.04,1.451,0.51,2.551,1.42,3.32c0.82,0.68,1.891,1.021,3.189,1.021
	c1.451,0,2.761-0.229,3.951-0.69l0.51,2.26c-1.391,0.601-3.021,0.91-4.91,0.91c-2.27,0-4.051-0.67-5.35-2
	c-1.291-1.34-1.94-3.129-1.94-5.379c0-2.211,0.6-4.051,1.81-5.511c1.26-1.569,2.971-2.351,5.12-2.351c2.11,0,3.71,0.781,4.79,2.351
	C167.029,27.93,167.46,29.471,167.46,31.3L167.46,31.3z M164.359,30.45c0.021-0.96-0.189-1.8-0.629-2.5
	c-0.561-0.91-1.431-1.36-2.59-1.36c-1.061,0-1.931,0.439-2.591,1.33c-0.54,0.7-0.86,1.551-0.96,2.53H164.359z M55.88,6.51
	c0,1.8-0.54,3.15-1.61,4.06c-1,0.84-2.41,1.26-4.25,1.26c-0.91,0-1.69-0.04-2.34-0.12V1.89c0.85-0.14,1.77-0.21,2.75-0.21
	c1.75,0,3.06,0.38,3.95,1.14C55.38,3.68,55.88,4.91,55.88,6.51z M54.19,6.55c0-1.16-0.31-2.06-0.92-2.68
	c-0.62-0.62-1.52-0.93-2.7-0.93c-0.5,0-0.93,0.03-1.29,0.1v7.46c0.2,0.03,0.56,0.04,1.08,0.04c1.22,0,2.17-0.34,2.83-1.02
	C53.86,8.85,54.19,7.85,54.19,6.55z M64.82,8.08c0,1.11-0.32,2.01-0.95,2.72c-0.66,0.73-1.54,1.1-2.64,1.1
	c-1.06,0-1.9-0.35-2.52-1.05c-0.63-0.7-0.94-1.58-0.94-2.65c0-1.11,0.32-2.03,0.97-2.74c0.65-0.71,1.521-1.07,2.61-1.07
	c1.06,0,1.9,0.35,2.55,1.05C64.52,6.12,64.82,7,64.82,8.08z M63.16,8.13c0-0.66-0.14-1.23-0.43-1.71c-0.34-0.57-0.81-0.86-1.43-0.86
	c-0.64,0-1.13,0.29-1.47,0.86c-0.29,0.47-0.43,1.05-0.43,1.74c0,0.66,0.14,1.23,0.43,1.71c0.35,0.57,0.83,0.86,1.45,0.86
	c0.61,0,1.09-0.29,1.43-0.88C63.02,9.36,63.16,8.79,63.16,8.13z M76.81,4.54l-2.25,7.19H73.1l-0.93-3.12
	c-0.24-0.78-0.43-1.56-0.58-2.32h-0.03c-0.14,0.79-0.33,1.56-0.58,2.32l-0.99,3.12H68.51l-2.12-7.19h1.64l0.81,3.42
	c0.2,0.81,0.36,1.58,0.49,2.31h0.03c0.12-0.6,0.32-1.37,0.59-2.29l1.02-3.43h1.3l0.98,3.36c0.24,0.82,0.43,1.61,0.58,2.37h0.04
	c0.11-0.74,0.27-1.53,0.49-2.37l0.87-3.36L76.81,4.54z M85.109,11.73H83.51V7.61c0-1.27-0.48-1.9-1.45-1.9
	c-0.47,0-0.86,0.17-1.16,0.52c-0.29,0.35-0.44,0.76-0.44,1.23v4.27h-1.6V6.59c0-0.63-0.02-1.32-0.06-2.06h1.41l0.07,1.12h0.04
	c0.19-0.35,0.46-0.64,0.83-0.87c0.43-0.27,0.92-0.4,1.45-0.4c0.67,0,1.23,0.22,1.67,0.65c0.55,0.53,0.83,1.33,0.83,2.38v4.32H85.109
	z M89.52,11.73h-1.6V1.24h1.6V11.73z M98.93,8.08c0,1.11-0.32,2.01-0.949,2.72c-0.66,0.73-1.541,1.1-2.641,1.1
	c-1.061,0-1.9-0.35-2.52-1.05c-0.631-0.7-0.94-1.58-0.94-2.65c0-1.11,0.32-2.03,0.97-2.74c0.65-0.71,1.521-1.07,2.61-1.07
	c1.06,0,1.899,0.35,2.55,1.05C98.63,6.12,98.93,7,98.93,8.08L98.93,8.08z M97.27,8.13c0-0.66-0.14-1.23-0.43-1.71
	c-0.33-0.57-0.811-0.86-1.43-0.86c-0.641,0-1.131,0.29-1.471,0.86c-0.289,0.47-0.43,1.05-0.43,1.74c0,0.66,0.141,1.23,0.43,1.71
	c0.351,0.57,0.83,0.86,1.451,0.86c0.609,0,1.09-0.29,1.43-0.88C97.13,9.36,97.27,8.79,97.27,8.13L97.27,8.13z M106.67,11.73h-1.439
	l-0.121-0.83h-0.039c-0.49,0.66-1.19,0.99-2.1,0.99c-0.681,0-1.23-0.22-1.641-0.65c-0.38-0.39-0.561-0.88-0.561-1.47
	c0-0.88,0.371-1.55,1.101-2.01c0.739-0.46,1.771-0.69,3.101-0.68V6.95c0-0.95-0.5-1.42-1.49-1.42c-0.711,0-1.34,0.18-1.881,0.53
	l-0.33-1.05c0.67-0.41,1.49-0.62,2.471-0.62c1.88,0,2.82,0.99,2.82,2.98v2.65C106.57,10.74,106.609,11.31,106.67,11.73z
	 M105.01,9.26V8.15c-1.76-0.03-2.65,0.45-2.65,1.45c0,0.38,0.101,0.66,0.311,0.84c0.21,0.19,0.471,0.28,0.78,0.28
	c0.35,0,0.68-0.11,0.979-0.33c0.301-0.22,0.49-0.51,0.551-0.85C105,9.46,105.01,9.37,105.01,9.26z M115.76,11.73h-1.42l-0.07-1.16
	h-0.039c-0.451,0.88-1.23,1.32-2.311,1.32c-0.87,0-1.59-0.34-2.16-1.02c-0.57-0.68-0.859-1.56-0.859-2.65
	c0-1.16,0.31-2.11,0.93-2.83c0.6-0.67,1.34-1.01,2.22-1.01c0.97,0,1.64,0.33,2.03,0.98h0.029V1.24h1.601V9.8
	C115.71,10.49,115.73,11.14,115.76,11.73z M114.109,8.7V7.5c0-0.21-0.02-0.38-0.039-0.5c-0.09-0.38-0.28-0.71-0.58-0.97
	c-0.301-0.26-0.66-0.39-1.07-0.39c-0.6,0-1.061,0.24-1.41,0.71c-0.34,0.47-0.51,1.08-0.51,1.82c0,0.71,0.16,1.29,0.49,1.73
	c0.35,0.47,0.81,0.71,1.4,0.71c0.529,0,0.939-0.2,1.26-0.59C113.96,9.65,114.109,9.21,114.109,8.7z M129.439,8.08
	c0,1.11-0.319,2.01-0.949,2.72c-0.66,0.73-1.54,1.1-2.641,1.1c-1.05,0-1.899-0.35-2.52-1.05c-0.63-0.7-0.939-1.58-0.939-2.65
	c0-1.11,0.319-2.03,0.969-2.74c0.65-0.71,1.521-1.07,2.611-1.07c1.049,0,1.899,0.35,2.549,1.05C129.141,6.12,129.439,7,129.439,8.08
	z M127.79,8.13c0-0.66-0.14-1.23-0.431-1.71c-0.34-0.57-0.81-0.86-1.439-0.86c-0.641,0-1.13,0.29-1.47,0.86
	c-0.29,0.47-0.431,1.05-0.431,1.74c0,0.66,0.141,1.23,0.431,1.71c0.35,0.57,0.829,0.86,1.45,0.86c0.609,0,1.09-0.29,1.439-0.88
	C127.641,9.36,127.79,8.79,127.79,8.13L127.79,8.13z M138.04,11.73h-1.601V7.61c0-1.27-0.479-1.9-1.449-1.9
	c-0.471,0-0.86,0.17-1.15,0.52c-0.3,0.35-0.439,0.76-0.439,1.23v4.27H131.8V6.59c0-0.63-0.021-1.32-0.06-2.06h1.4l0.069,1.12h0.04
	c0.189-0.35,0.471-0.64,0.83-0.87c0.439-0.27,0.92-0.4,1.449-0.4c0.671,0,1.23,0.22,1.671,0.65c0.55,0.53,0.829,1.33,0.829,2.38
	v4.32H138.04z M148.811,5.74h-1.761v3.5c0,0.89,0.31,1.33,0.931,1.33c0.289,0,0.529-0.02,0.709-0.07l0.041,1.21
	c-0.32,0.12-0.73,0.18-1.24,0.18c-0.631,0-1.12-0.19-1.48-0.58c-0.359-0.38-0.529-1.03-0.529-1.94V5.74h-1.051v-1.2h1.051V3.22
	l1.569-0.47v1.79h1.761V5.74z M157.279,11.73h-1.6V7.64c0-1.29-0.479-1.94-1.449-1.94c-0.74,0-1.25,0.37-1.53,1.12
	c-0.05,0.16-0.07,0.35-0.07,0.58v4.33h-1.601V1.24h1.601v4.34h0.03c0.5-0.79,1.23-1.18,2.16-1.18c0.66,0,1.209,0.22,1.65,0.65
	c0.539,0.54,0.809,1.35,0.809,2.41V11.73L157.279,11.73z M166.01,7.79c0,0.29-0.02,0.53-0.06,0.72h-4.8
	c0.02,0.71,0.25,1.25,0.689,1.63c0.41,0.34,0.93,0.5,1.57,0.5c0.71,0,1.359-0.11,1.939-0.34l0.25,1.11
	c-0.68,0.3-1.49,0.44-2.41,0.44c-1.109,0-1.989-0.33-2.629-0.98c-0.641-0.66-0.951-1.54-0.951-2.64c0-1.09,0.291-1.99,0.891-2.71
	c0.62-0.77,1.46-1.15,2.52-1.15c1.03,0,1.82,0.38,2.351,1.15C165.8,6.14,166.01,6.9,166.01,7.79z M164.49,7.38
	c0.01-0.47-0.09-0.88-0.311-1.23c-0.279-0.44-0.699-0.67-1.27-0.67c-0.52,0-0.95,0.22-1.27,0.65c-0.271,0.35-0.42,0.76-0.471,1.24
	L164.49,7.38z"/>
</svg>
