<?xml version="1.0" encoding="utf-8"?>
<!-- Generator: Adobe Illustrator 16.0.0, SVG Export Plug-In . SVG Version: 6.00 Build 0)  -->
<!DOCTYPE svg PUBLIC "-//W3C//DTD SVG 1.0//EN" "http://www.w3.org/TR/2001/REC-SVG-20010904/DTD/svg10.dtd">
<svg version="1.0" id="Layer_1" xmlns="http://www.w3.org/2000/svg" xmlns:xlink="http://www.w3.org/1999/xlink" x="0px" y="0px"
	 width="12.008px" height="8.681px" viewBox="0 0 12.008 8.681" enable-background="new 0 0 12.008 8.681" xml:space="preserve">
<path d="M1.103,0C0.487,0,0.012,0.45,0.012,0.99c0,0.541,0.475,1.036,1.091,1.036c0.427,0,0.711-0.226,0.948-0.45
	c0.285,0.45,0.616,1.216,0.616,2.567c0,2.612-2.466,3.738-2.466,3.738c-0.236,0.09-0.236,0.226-0.143,0.405l0.143,0.271
	c0.096,0.18,0.237,0.135,0.428,0.045c0,0,2.939-1.352,2.939-4.459C3.569,1.125,2.098,0,1.103,0z M9.543,0
	C8.926,0,8.453,0.45,8.453,0.99c0,0.541,0.474,1.036,1.091,1.036c0.426,0,0.711-0.226,0.948-0.45
	c0.284,0.45,0.616,1.216,0.616,2.567c0,2.612-2.466,3.738-2.466,3.738C8.405,7.971,8.405,8.107,8.5,8.287l0.142,0.271
	c0.095,0.18,0.237,0.135,0.427,0.045c0,0,2.939-1.352,2.939-4.459C12.008,1.125,10.54,0,9.543,0z"/>
</svg>
