<?xml version="1.0" encoding="utf-8"?>
<!-- Generator: Adobe Illustrator 16.0.0, SVG Export Plug-In . SVG Version: 6.00 Build 0)  -->
<!DOCTYPE svg PUBLIC "-//W3C//DTD SVG 1.0//EN" "http://www.w3.org/TR/2001/REC-SVG-20010904/DTD/svg10.dtd">
<svg version="1.0" id="Layer_1" xmlns="http://www.w3.org/2000/svg" xmlns:xlink="http://www.w3.org/1999/xlink" x="0px" y="0px"
	 width="12.008px" height="8.681px" viewBox="0 0 12.008 8.681" enable-background="new 0 0 12.008 8.681" xml:space="preserve">
<path d="M10.906,8.681c0.616,0,1.091-0.45,1.091-0.99c0-0.541-0.475-1.036-1.091-1.036c-0.427,0-0.711,0.226-0.948,0.45
	c-0.285-0.45-0.616-1.216-0.616-2.567c0-2.612,2.466-3.738,2.466-3.738c0.236-0.09,0.236-0.226,0.143-0.405l-0.143-0.271
	c-0.096-0.18-0.237-0.135-0.428-0.045c0,0-2.939,1.352-2.939,4.459C8.44,7.555,9.911,8.681,10.906,8.681z M2.465,8.681
	c0.617,0,1.091-0.45,1.091-0.99c0-0.541-0.474-1.036-1.091-1.036c-0.426,0-0.711,0.226-0.948,0.45
	c-0.284-0.45-0.616-1.216-0.616-2.567c0-2.612,2.466-3.738,2.466-3.738c0.237-0.09,0.237-0.226,0.142-0.405L3.367,0.124
	C3.271-0.056,3.129-0.011,2.94,0.079c0,0-2.94,1.352-2.94,4.459C0,7.555,1.47,8.681,2.465,8.681z"/>
</svg>
