<?xml version="1.0" encoding="utf-8"?>
<!-- Generator: Adobe Illustrator 16.0.0, SVG Export Plug-In . SVG Version: 6.00 Build 0)  -->
<!DOCTYPE svg PUBLIC "-//W3C//DTD SVG 1.0//EN" "http://www.w3.org/TR/2001/REC-SVG-20010904/DTD/svg10.dtd">
<svg version="1.0" id="Layer_1" xmlns="http://www.w3.org/2000/svg" xmlns:xlink="http://www.w3.org/1999/xlink" x="0px" y="0px"
	 width="43.875px" height="43.875px" viewBox="0 0 43.875 43.875" enable-background="new 0 0 43.875 43.875" xml:space="preserve">
<g>
	<g>
		<path fill-rule="evenodd" clip-rule="evenodd" fill="#F54D31" d="M21.938,0C9.822,0,0,9.822,0,21.938
			c0,12.115,9.822,21.938,21.938,21.938c12.115,0,21.938-9.822,21.938-21.938C43.875,9.822,34.053,0,21.938,0z M21.938,42.041
			c-11.104,0-20.104-9-20.104-20.104S10.834,1.833,21.938,1.833s20.104,9,20.104,20.104S33.041,42.041,21.938,42.041z
			 M26.979,17.402c0.542,0.184,1.188,0.319,1.909,0.319c1.336,0,2.928-0.468,4.599-1.969c0.371-0.334,0.401-0.906,0.067-1.277
			s-0.905-0.401-1.276-0.068c-1.522,1.369-3.091,1.807-4.661,1.302c-1.221-0.394-2.021-1.224-2.042-1.246
			c-0.34-0.363-0.909-0.385-1.275-0.046c-0.366,0.34-0.388,0.911-0.049,1.277C24.295,15.741,25.332,16.846,26.979,17.402z
			 M13.105,17.402c0.543,0.184,1.188,0.319,1.909,0.319c1.336,0,2.929-0.468,4.6-1.969c0.371-0.334,0.401-0.906,0.067-1.277
			s-0.905-0.401-1.276-0.068c-1.523,1.369-3.092,1.807-4.662,1.302c-1.225-0.395-2.025-1.229-2.041-1.246
			c-0.34-0.363-0.91-0.385-1.275-0.046c-0.367,0.34-0.389,0.911-0.049,1.277C10.421,15.741,11.458,16.846,13.105,17.402z
			 M36.362,25.566c-0.349-0.438-0.987-0.513-1.426-0.164c-5.982,4.747-12.145,6.214-18.312,4.359
			c-4.634-1.394-7.563-4.239-7.61-4.285c-0.397-0.395-1.039-0.392-1.435,0.005c-0.396,0.398-0.394,1.041,0.005,1.436
			c0.131,0.13,3.264,3.203,8.367,4.762c1.918,0.586,3.861,0.879,5.807,0.879c1.108,0,2.22-0.095,3.325-0.285
			c3.783-0.653,7.521-2.43,11.113-5.28C36.637,26.644,36.711,26.005,36.362,25.566z"/>
	</g>
</g>
</svg>
