<?xml version="1.0" encoding="utf-8"?>
<!-- Generator: Adobe Illustrator 16.0.0, SVG Export Plug-In . SVG Version: 6.00 Build 0)  -->
<!DOCTYPE svg PUBLIC "-//W3C//DTD SVG 1.0//EN" "http://www.w3.org/TR/2001/REC-SVG-20010904/DTD/svg10.dtd">
<svg version="1.0" id="Layer_1" xmlns="http://www.w3.org/2000/svg" xmlns:xlink="http://www.w3.org/1999/xlink" x="0px" y="0px"
	 width="43.875px" height="43.875px" viewBox="0 0 43.875 43.875" enable-background="new 0 0 43.875 43.875" xml:space="preserve">
<g>
	<g>
		<path fill-rule="evenodd" clip-rule="evenodd" fill="#F54D31" d="M21.938,0C9.822,0,0,9.822,0,21.938
			c0,12.115,9.822,21.938,21.938,21.938c12.115,0,21.938-9.822,21.938-21.938C43.875,9.822,34.053,0,21.938,0z M21.938,42.041
			c-11.104,0-20.104-9-20.104-20.104S10.834,1.833,21.938,1.833s20.104,9,20.104,20.104S33.041,42.041,21.938,42.041z
			 M37.799,21.579c-0.297-0.333-7.387-8.133-16.34-8.133s-16.043,7.801-16.34,8.133c-0.307,0.343-0.307,0.863,0,1.206
			c0.297,0.332,7.387,8.133,16.34,8.133s16.043-7.802,16.34-8.133C38.106,22.441,38.106,21.922,37.799,21.579z M21.458,29.11
			c-6.757,0-12.585-5.142-14.406-6.93c1.818-1.788,7.635-6.928,14.406-6.928c6.756,0,12.584,5.142,14.406,6.929
			C34.047,23.971,28.229,29.11,21.458,29.11z M16.638,22.182c0,2.658,2.163,4.821,4.821,4.821c2.659,0,4.821-2.163,4.821-4.821
			c0-2.659-2.162-4.821-4.821-4.821C18.8,17.36,16.638,19.523,16.638,22.182z M24.473,22.182c0,1.661-1.354,3.014-3.014,3.014
			c-1.661,0-3.013-1.353-3.013-3.014c0-1.662,1.352-3.014,3.013-3.014C23.119,19.168,24.473,20.52,24.473,22.182z"/>
	</g>
</g>
</svg>
